<svg aria-label="Graph of an inequality in the x y plane with the origin labeled O. The x axis ranges from negative 8 to 8. The y axis ranges from negative 10 to 2. Refer to long description." height="336.328125px" role="img" version="1.0.0" viewBox="0 0 370 336.328125" width="370px" xmlns="http://www.w3.org/2000/svg" xmlns:xlink="http://www.w3.org/1999/xlink"><defs><marker id="arrow" markerHeight="6px" markerUnits="userSpaceOnUse" markerWidth="10px" orient="auto" viewBox="0 -3 10 6"><path d="M0,-3 L10,0 L0,3" fill="currentColor"></path></marker></defs><g class="graph-group" transform="translate(25, 25)"><g class="grid-group"><g class="x-grid"><line class="x-grid" stroke="#000000" stroke-width="0" x1="156.1640625" x2="156.1640625" y1="311.328125" y2="0"></line><line class="x-grid" stroke="#000000" stroke-width="1px" x1="137.71949259440106" x2="137.71949259440106" y1="311.328125" y2="0"></line><line class="x-grid" stroke="#000000" stroke-width="1px" x1="119.27492268880208" x2="119.27492268880208" y1="311.328125" y2="0"></line><line class="x-grid" stroke="#000000" stroke-width="1px" x1="100.83035278320314" x2="100.83035278320314" y1="311.328125" y2="0"></line><line class="x-grid" stroke="#000000" stroke-width="1px" x1="82.38578287760417" x2="82.38578287760417" y1="311.328125" y2="0"></line><line class="x-grid" stroke="#000000" stroke-width="1px" x1="63.94121297200521" x2="63.94121297200521" y1="311.328125" y2="0"></line><line class="x-grid" stroke="#000000" stroke-width="1px" x1="45.49664306640625" x2="45.49664306640625" y1="311.328125" y2="0"></line><line class="x-grid" stroke="#000000" stroke-width="1px" x1="27.052073160807293" x2="27.052073160807293" y1="311.328125" y2="0"></line><line class="x-grid" stroke="#000000" stroke-width="1px" x1="8.607503255208334" x2="8.607503255208334" y1="311.328125" y2="0"></line><line class="x-grid" stroke="#000000" stroke-width="0" x1="156.1640625" x2="156.1640625" y1="311.328125" y2="0"></line><line class="x-grid" stroke="#000000" stroke-width="1px" x1="174.60863240559897" x2="174.60863240559897" y1="311.328125" y2="0"></line><line class="x-grid" stroke="#000000" stroke-width="1px" x1="193.05320231119794" x2="193.05320231119794" y1="311.328125" y2="0"></line><line class="x-grid" stroke="#000000" stroke-width="1px" x1="211.49777221679688" x2="211.49777221679688" y1="311.328125" y2="0"></line><line class="x-grid" stroke="#000000" stroke-width="1px" x1="229.94234212239584" x2="229.94234212239584" y1="311.328125" y2="0"></line><line class="x-grid" stroke="#000000" stroke-width="1px" x1="248.3869120279948" x2="248.3869120279948" y1="311.328125" y2="0"></line><line class="x-grid" stroke="#000000" stroke-width="1px" x1="266.8314819335938" x2="266.8314819335938" y1="311.328125" y2="0"></line><line class="x-grid" stroke="#000000" stroke-width="1px" x1="285.2760518391927" x2="285.2760518391927" y1="311.328125" y2="0"></line><line class="x-grid" stroke="#000000" stroke-width="1px" x1="303.7206217447917" x2="303.7206217447917" y1="311.328125" y2="0"></line></g><g class="y-grid"><line class="y-grid" stroke="#000000" stroke-width="0" x1="0" x2="311.328125" y1="59.594690393518505" y2="59.594690393518505"></line><line class="y-grid" stroke="#000000" stroke-width="1px" x1="0" x2="311.328125" y1="83.73703342013889" y2="83.73703342013889"></line><line class="y-grid" stroke="#000000" stroke-width="1px" x1="0" x2="311.328125" y1="107.87937644675928" y2="107.87937644675928"></line><line class="y-grid" stroke="#000000" stroke-width="1px" x1="0" x2="311.328125" y1="132.02171947337962" y2="132.02171947337962"></line><line class="y-grid" stroke="#000000" stroke-width="1px" x1="0" x2="311.328125" y1="156.1640625" y2="156.1640625"></line><line class="y-grid" stroke="#000000" stroke-width="1px" x1="0" x2="311.328125" y1="180.30640552662035" y2="180.30640552662035"></line><line class="y-grid" stroke="#000000" stroke-width="1px" x1="0" x2="311.328125" y1="204.44874855324076" y2="204.44874855324076"></line><line class="y-grid" stroke="#000000" stroke-width="1px" x1="0" x2="311.328125" y1="228.59109157986114" y2="228.59109157986114"></line><line class="y-grid" stroke="#000000" stroke-width="1px" x1="0" x2="311.328125" y1="252.7334346064815" y2="252.7334346064815"></line><line class="y-grid" stroke="#000000" stroke-width="1px" x1="0" x2="311.328125" y1="276.87577763310185" y2="276.87577763310185"></line><line class="y-grid" stroke="#000000" stroke-width="1px" x1="0" x2="311.328125" y1="301.01812065972223" y2="301.01812065972223"></line><line class="y-grid" stroke="#000000" stroke-width="0" x1="0" x2="311.328125" y1="59.594690393518505" y2="59.594690393518505"></line><line class="y-grid" stroke="#000000" stroke-width="1px" x1="0" x2="311.328125" y1="35.45234736689816" y2="35.45234736689816"></line><line class="y-grid" stroke="#000000" stroke-width="1px" x1="0" x2="311.328125" y1="11.310004340277777" y2="11.310004340277777"></line></g></g><g class="x-axis-group" fill="none" font-family="sans-serif" font-size="10" text-anchor="middle" transform="translate(0,59.094690393518505)"><g class="tick x-tick" opacity="1" transform="translate(8.607503255208334,0)"><line stroke="currentColor" stroke-width="1px" y1="-6px" y2="6px"></line><rect height="15px" style="fill: white;" width="20.1px" x="-14.05" y="6"></rect><text dy="0.71em" fill="currentColor" style="font-family: Noto Serif; font-size: 15px;" x="-4" y="8">‒8</text></g><g class="tick x-tick" opacity="1" transform="translate(45.49664306640625,0)"><line stroke="currentColor" stroke-width="1px" y1="-6px" y2="6px"></line><rect height="15px" style="fill: white;" width="20.25px" x="-14.125" y="6"></rect><text dy="0.71em" fill="currentColor" style="font-family: Noto Serif; font-size: 15px;" x="-4" y="8">‒6</text></g><g class="tick x-tick" opacity="1" transform="translate(82.38578287760417,0)"><line stroke="currentColor" stroke-width="1px" y1="-6px" y2="6px"></line><rect height="15px" style="fill: white;" width="20.5px" x="-14.25" y="6"></rect><text dy="0.71em" fill="currentColor" style="font-family: Noto Serif; font-size: 15px;" x="-4" y="8">‒4</text></g><g class="tick x-tick" opacity="1" transform="translate(119.27492268880208,0)"><line stroke="currentColor" stroke-width="1px" y1="-6px" y2="6px"></line><rect height="15px" style="fill: white;" width="19.75px" x="-13.875" y="6"></rect><text dy="0.71em" fill="currentColor" style="font-family: Noto Serif; font-size: 15px;" x="-4" y="8">‒2</text></g><g class="tick x-tick" opacity="1" transform="translate(193.05320231119794,0)"><line stroke="currentColor" stroke-width="1px" y1="-6px" y2="6px"></line><rect height="15px" style="fill: white;" width="9.75px" x="-4.875" y="6"></rect><text dy="0.71em" fill="currentColor" style="font-family: Noto Serif; font-size: 15px;" x="0" y="8">2</text></g><g class="tick x-tick" opacity="1" transform="translate(229.94234212239584,0)"><line stroke="currentColor" stroke-width="1px" y1="-6px" y2="6px"></line><rect height="15px" style="fill: white;" width="10.5px" x="-5.25" y="6"></rect><text dy="0.71em" fill="currentColor" style="font-family: Noto Serif; font-size: 15px;" x="0" y="8">4</text></g><g class="tick x-tick" opacity="1" transform="translate(266.8314819335938,0)"><line stroke="currentColor" stroke-width="1px" y1="-6px" y2="6px"></line><rect height="15px" style="fill: white;" width="10.25px" x="-5.125" y="6"></rect><text dy="0.71em" fill="currentColor" style="font-family: Noto Serif; font-size: 15px;" x="0" y="8">6</text></g><g class="tick x-tick" opacity="1" transform="translate(303.7206217447917,0)"><line stroke="currentColor" stroke-width="1px" y1="-6px" y2="6px"></line><rect height="15px" style="fill: white;" width="10.1px" x="-5.05" y="6"></rect><text dy="0.71em" fill="currentColor" style="font-family: Noto Serif; font-size: 15px;" x="0" y="8">8</text></g><line class="x-axis-line" stroke="currentColor" stroke-width="1.5px" x1="0" x2="311.328125"></line><line class="x-axis-line" marker-end="url(#arrow)" stroke="currentColor" stroke-width="1.5px" x1="0" x2="311.328125"></line><text class="x-axis-label" style="text-anchor: start; dominant-baseline: middle; font-family: Noto Serif; font-style: italic; fill: currentColor; font-size: 15px;" transform="translate(323.328125,0)">x</text></g><g class="y-axis-group" fill="none" font-family="sans-serif" font-size="10" text-anchor="end" transform="translate(155.6640625,0)"><g class="tick y-tick" opacity="1" transform="translate(0,301.01812065972223)"><line stroke="currentColor" stroke-width="1px" x1="-6px" x2="6px"></line><rect height="15px" style="fill: white;" width="28.75px" x="-35.75" y="-8.5"></rect><text dy="0.32em" fill="currentColor" style="font-family: Noto Serif; font-size: 15px;" x="-8" y="-1">‒10</text></g><g class="tick y-tick" opacity="1" transform="translate(0,252.7334346064815)"><line stroke="currentColor" stroke-width="1px" x1="-6px" x2="6px"></line><rect height="15px" style="fill: white;" width="20.1px" x="-27.1" y="-8.5"></rect><text dy="0.32em" fill="currentColor" style="font-family: Noto Serif; font-size: 15px;" x="-8" y="-1">‒8</text></g><g class="tick y-tick" opacity="1" transform="translate(0,204.44874855324076)"><line stroke="currentColor" stroke-width="1px" x1="-6px" x2="6px"></line><rect height="15px" style="fill: white;" width="20.25px" x="-27.25" y="-8.5"></rect><text dy="0.32em" fill="currentColor" style="font-family: Noto Serif; font-size: 15px;" x="-8" y="-1">‒6</text></g><g class="tick y-tick" opacity="1" transform="translate(0,156.1640625)"><line stroke="currentColor" stroke-width="1px" x1="-6px" x2="6px"></line><rect height="15px" style="fill: white;" width="20.5px" x="-27.5" y="-8.5"></rect><text dy="0.32em" fill="currentColor" style="font-family: Noto Serif; font-size: 15px;" x="-8" y="-1">‒4</text></g><g class="tick y-tick" opacity="1" transform="translate(0,107.87937644675928)"><line stroke="currentColor" stroke-width="1px" x1="-6px" x2="6px"></line><rect height="15px" style="fill: white;" width="19.75px" x="-26.75" y="-8.5"></rect><text dy="0.32em" fill="currentColor" style="font-family: Noto Serif; font-size: 15px;" x="-8" y="-1">‒2</text></g><g class="tick y-tick" opacity="1" transform="translate(0,11.310004340277777)"><line stroke="currentColor" stroke-width="1px" x1="-6px" x2="6px"></line><rect height="15px" style="fill: white;" width="9.75px" x="-16.75" y="-7.5"></rect><text dy="0.32em" fill="currentColor" style="font-family: Noto Serif; font-size: 15px;" x="-8" y="0">2</text></g><line class="y-axis-line" stroke="currentColor" stroke-width="1.5px" y1="311.328125" y2="0"></line><line class="y-axis-line" marker-end="url(#arrow)" stroke="currentColor" stroke-width="1.5px" y1="311.328125" y2="0"></line><text class="y-axis-label" style="text-anchor: middle; dominant-baseline: text-after-edge; font-family: Noto Serif; font-style: italic; fill: currentColor; font-size: 15px;" transform="translate(0,-12)">y</text></g><path d="M0,155.664L311.322,155.664L311.328,0L0,0L0,155.664" fill="#B7B7B7" style="mix-blend-mode: multiply;"></path><text dx="-13.25px" dy="13.5px" fill="currentColor" style="font-size: 15px; font-style: italic; font-family: Noto Serif;" x="155.6640625" y="59.094690393518505">O</text><path d="M0,155.664L311.322,155.664" fill="none" stroke="black" stroke-dasharray="7,3" stroke-width="3px"></path></g></svg>