<svg aria-label="A rectangle. Its length is x. Its width is y. Note: Figure not drawn to scale." height="147.135" id="uuid-ef640d97-b00e-457b-a1f4-93b9cf1435b1" role="img" viewBox="0 0 225.612 147.135" width="225.612" xmlns="http://www.w3.org/2000/svg"><path d="M0,143.535v-.63h.195c.23,0,.437-.025.623-.075.185-.05.332-.152.442-.308.11-.155.165-.387.165-.697v-7.35c0-.3-.058-.522-.173-.667-.115-.145-.265-.24-.45-.285-.185-.045-.388-.067-.607-.067h-.195v-.63h2.745l5.37,8.295v-6.645c0-.3-.058-.522-.172-.667-.115-.145-.265-.24-.45-.285-.185-.045-.388-.067-.607-.067h-.195v-.63h3.765v.63h-.195c-.22,0-.425.025-.615.075s-.34.15-.45.3c-.11.15-.165.385-.165.705v9h-1.065l-5.625-8.64v6.93c0,.31.055.542.165.697.11.155.26.258.45.308.19.05.395.075.615.075h.195v.63H0Z"></path><path d="M15.18,143.685c-1.08,0-1.93-.345-2.55-1.035-.62-.69-.93-1.74-.93-3.15,0-1.4.297-2.442.892-3.127.595-.685,1.473-1.027,2.633-1.027,1.08,0,1.93.343,2.55,1.027.62.685.93,1.728.93,3.127,0,1.41-.298,2.46-.893,3.15-.595.69-1.473,1.035-2.632,1.035ZM15.21,142.905c.5,0,.9-.127,1.2-.383.3-.255.515-.637.645-1.147.13-.51.195-1.135.195-1.875,0-1.12-.155-1.959-.465-2.52-.31-.56-.84-.84-1.59-.84s-1.277.28-1.583.84c-.305.561-.458,1.4-.458,2.52s.155,1.968.465,2.542c.31.575.84.863,1.59.863Z"></path><path d="M23.13,143.685c-.76,0-1.312-.172-1.658-.518s-.518-.947-.518-1.807v-5.01h-1.14v-.6c.18,0,.38-.037.6-.112.22-.075.41-.197.57-.368.17-.18.31-.4.42-.66.11-.26.2-.58.27-.96h.69v1.845h1.965v.855h-1.965v5.055c0,.51.105.885.315,1.125.21.24.485.36.825.36.18,0,.345-.01.495-.03.15-.02.305-.045.465-.075v.66c-.13.06-.325.115-.585.165-.26.05-.51.075-.75.075Z"></path><path d="M29.115,143.685c-1.09,0-1.943-.36-2.558-1.08-.615-.72-.922-1.73-.922-3.03,0-1.4.29-2.455.87-3.165s1.4-1.065,2.46-1.065c.97,0,1.733.3,2.288.9.555.6.833,1.495.833,2.685v.69h-4.995c.02,1.09.218,1.882.593,2.377s.922.743,1.643.743c.52,0,.962-.107,1.327-.323.365-.215.638-.458.818-.728.07.03.135.09.195.18s.09.2.09.33c0,.2-.095.415-.285.645-.19.23-.48.427-.87.592s-.885.248-1.485.248ZM30.569,138.81c0-.8-.123-1.442-.367-1.927-.245-.485-.667-.728-1.268-.728-.55,0-.978.228-1.283.683s-.482,1.112-.532,1.972h3.45Z"></path><path d="M34.995,137.459c-.26,0-.483-.075-.667-.225-.186-.15-.278-.415-.278-.795,0-.39.092-.657.278-.802.185-.145.407-.218.667-.218s.482.073.667.218c.185.145.277.413.277.802,0,.38-.093.645-.277.795-.185.15-.408.225-.667.225ZM34.995,143.64c-.26,0-.483-.075-.667-.225-.186-.15-.278-.415-.278-.795,0-.39.092-.657.278-.802.185-.145.407-.218.667-.218s.482.073.667.218c.185.145.277.412.277.802,0,.38-.093.645-.277.795-.185.15-.408.225-.667.225Z"></path><path d="M41.594,143.535v-.63h.195c.22,0,.422-.022.607-.067.185-.045.335-.14.45-.285.115-.145.173-.362.173-.652v-7.425c0-.3-.058-.522-.173-.667-.115-.145-.265-.24-.45-.285-.185-.045-.388-.067-.607-.067h-.195v-.63h7.56l.075,2.625h-.78l-.075-.645c-.04-.34-.163-.63-.368-.87-.205-.24-.542-.36-1.012-.36h-2.46v4.335h3.615v.735h-3.615v3.18c0,.31.055.542.165.697.11.155.26.258.45.308.19.05.395.075.615.075h.495v.63h-4.665Z"></path><path d="M50.22,143.535v-.63h.195c.22,0,.422-.022.607-.067.185-.045.335-.14.45-.285.115-.145.172-.362.172-.652v-4.755c0-.3-.058-.522-.172-.667-.115-.145-.265-.24-.45-.285-.185-.045-.388-.068-.607-.068h-.045v-.63h2.685v6.33c0,.31.055.542.165.697.11.155.26.258.45.308.19.05.395.075.615.075h.195v.63h-4.26ZM52.29,133.995c-.24,0-.442-.07-.607-.21s-.248-.38-.248-.72c0-.35.083-.592.248-.727.165-.135.367-.203.607-.203.23,0,.43.067.6.203.17.135.255.377.255.727,0,.34-.085.58-.255.72-.17.14-.37.21-.6.21Z"></path><path d="M58.139,147.135c-1.04,0-1.82-.193-2.34-.578-.52-.385-.78-.922-.78-1.612,0-.39.087-.718.262-.982.175-.265.405-.473.69-.623.285-.15.593-.255.923-.315-.2-.09-.388-.238-.562-.443-.175-.205-.263-.467-.263-.788,0-.3.077-.56.232-.78.155-.22.402-.43.743-.63-.43-.18-.763-.478-.998-.893-.235-.415-.353-.873-.353-1.373,0-.86.235-1.538.705-2.032.47-.495,1.175-.743,2.115-.743.36,0,.7.05,1.02.15.32.1.55.215.69.345.1-.11.22-.228.36-.353.14-.125.302-.232.487-.323.185-.09.388-.135.607-.135.3,0,.522.078.667.232.145.155.218.337.218.547s-.062.393-.188.547c-.125.155-.328.233-.607.233,0-.11-.033-.223-.098-.338-.065-.115-.198-.172-.397-.172-.13,0-.245.015-.345.045-.1.03-.2.075-.3.135.17.21.31.458.42.742.11.285.165.643.165,1.073,0,.74-.223,1.355-.667,1.845-.445.49-1.123.735-2.033.735-.12,0-.257-.008-.412-.022-.155-.015-.283-.033-.383-.053-.19.1-.355.225-.495.375s-.21.34-.21.57c0,.18.058.32.173.42.115.1.367.15.757.15h1.695c.6,0,1.08.098,1.44.292.36.195.623.46.788.795s.248.717.248,1.147c0,.86-.322,1.542-.967,2.047s-1.648.758-3.008.758ZM58.169,146.4c.72,0,1.275-.078,1.665-.233.39-.155.662-.37.817-.645.155-.275.232-.587.232-.938,0-.46-.13-.768-.39-.922-.26-.155-.64-.232-1.14-.232h-1.47c-.28,0-.545.038-.795.112-.25.075-.455.212-.615.413-.16.2-.24.5-.24.9,0,.29.055.553.165.788.11.235.305.42.585.555.28.135.675.203,1.185.203ZM58.469,139.935c.33,0,.593-.065.788-.195s.335-.335.42-.615c.085-.28.127-.635.127-1.065,0-.45-.045-.822-.135-1.117-.09-.295-.232-.513-.428-.653-.195-.14-.458-.21-.788-.21-.32,0-.58.073-.78.218-.2.145-.345.365-.435.66-.09.295-.135.667-.135,1.118,0,.64.107,1.11.322,1.41.215.3.562.45,1.042.45Z"></path><path d="M66.839,143.685c-.791,0-1.4-.232-1.83-.697-.43-.465-.645-1.212-.645-2.243v-3.6c0-.3-.058-.522-.173-.667-.115-.145-.265-.24-.45-.285-.185-.045-.388-.068-.607-.068h-.045v-.63h2.685v5.175c0,.43.047.8.143,1.11s.257.545.488.705c.23.16.545.24.945.24.44,0,.8-.103,1.08-.308.28-.205.485-.49.615-.855.13-.365.195-.787.195-1.268v-3.09c0-.32-.055-.555-.165-.705-.11-.15-.258-.25-.442-.3-.186-.05-.393-.075-.623-.075h-.045v-.63h2.685v6.405c0,.29.058.507.173.652.115.145.265.24.45.285.185.045.388.067.607.067h.045v.63h-2.385l-.195-1.215h-.075c-.31.56-.67.928-1.08,1.103s-.86.262-1.35.262Z"></path><path d="M72.764,143.535v-.63h.045c.23,0,.438-.025.623-.075.185-.05.332-.152.442-.308.11-.155.165-.387.165-.697v-4.68c0-.3-.058-.522-.172-.667-.115-.145-.265-.24-.45-.285-.185-.045-.388-.068-.607-.068h-.045v-.63h2.31l.285,1.485h.075c.13-.3.27-.575.42-.825s.35-.448.6-.593c.25-.145.595-.217,1.035-.217.55,0,.957.095,1.222.285s.397.46.397.81c0,.31-.107.565-.322.765-.215.2-.573.3-1.073.3,0-.28-.025-.505-.075-.675-.05-.17-.133-.295-.248-.375-.115-.08-.272-.12-.473-.12-.28,0-.515.11-.705.33-.19.22-.34.5-.45.84-.11.34-.19.692-.24,1.057-.05.365-.075.693-.075.982v2.355c0,.29.057.507.172.652.115.145.265.24.45.285.185.045.387.067.607.067h.42v.63h-4.335Z"></path><path d="M83.639,143.685c-1.09,0-1.943-.36-2.558-1.08-.615-.72-.922-1.73-.922-3.03,0-1.4.29-2.455.87-3.165s1.4-1.065,2.46-1.065c.97,0,1.733.3,2.288.9.555.6.833,1.495.833,2.685v.69h-4.995c.02,1.09.218,1.882.593,2.377s.922.743,1.643.743c.52,0,.962-.107,1.327-.323.365-.215.638-.458.818-.728.07.03.135.09.195.18s.09.2.09.33c0,.2-.095.415-.285.645-.19.23-.48.427-.87.592s-.885.248-1.485.248ZM85.094,138.81c0-.8-.123-1.442-.367-1.927-.245-.485-.667-.728-1.268-.728-.55,0-.978.228-1.283.683s-.482,1.112-.532,1.972h3.45Z"></path><path d="M91.679,143.535v-.63h.12c.23,0,.438-.025.623-.075.185-.05.332-.152.442-.308.11-.155.165-.387.165-.697v-4.68c0-.3-.055-.522-.165-.667-.11-.145-.255-.24-.435-.285-.18-.045-.38-.068-.6-.068h-.075v-.63h2.43l.195,1.215h.075c.21-.38.433-.667.667-.862s.493-.328.772-.397c.28-.07.58-.105.9-.105.79,0,1.407.232,1.853.697.445.465.667,1.213.667,2.243v3.54c0,.31.047.542.142.697.095.155.228.258.398.308.17.05.365.075.585.075h.075v.63h-2.61v-5.175c0-.65-.123-1.155-.368-1.515s-.672-.54-1.282-.54c-.45,0-.808.112-1.073.337s-.455.523-.57.893c-.115.37-.172.77-.172,1.2v3.165c0,.29.055.507.165.652.11.145.255.24.435.285.18.045.38.067.6.067h.075v.63h-4.035Z"></path><path d="M105.239,143.685c-1.08,0-1.93-.345-2.55-1.035-.62-.69-.93-1.74-.93-3.15,0-1.4.297-2.442.892-3.127.595-.685,1.473-1.027,2.633-1.027,1.08,0,1.93.343,2.55,1.027.62.685.93,1.728.93,3.127,0,1.41-.298,2.46-.893,3.15-.595.69-1.473,1.035-2.632,1.035ZM105.269,142.905c.5,0,.9-.127,1.2-.383.3-.255.515-.637.645-1.147.13-.51.195-1.135.195-1.875,0-1.12-.155-1.959-.465-2.52-.31-.56-.84-.84-1.59-.84s-1.277.28-1.583.84c-.305.561-.458,1.4-.458,2.52s.155,1.968.465,2.542c.31.575.84.863,1.59.863Z"></path><path d="M113.189,143.685c-.761,0-1.313-.172-1.658-.518s-.518-.947-.518-1.807v-5.01h-1.14v-.6c.18,0,.38-.037.6-.112.22-.075.41-.197.57-.368.17-.18.31-.4.42-.66.11-.26.2-.58.27-.96h.69v1.845h1.965v.855h-1.965v5.055c0,.51.105.885.315,1.125.21.24.485.36.826.36.18,0,.345-.01.494-.03.15-.02.306-.045.465-.075v.66c-.13.06-.324.115-.585.165-.26.05-.51.075-.749.075Z"></path><path d="M122.653,143.685c-.66,0-1.218-.145-1.672-.435-.455-.29-.801-.742-1.035-1.357-.235-.615-.353-1.402-.353-2.362,0-.97.117-1.763.353-2.377.234-.615.58-1.07,1.035-1.365.454-.295,1.012-.442,1.672-.442.58,0,1.053.123,1.418.368.364.245.657.562.877.952h.09c-.029-.25-.052-.527-.067-.833-.015-.305-.022-.577-.022-.817v-1.23c0-.3-.058-.522-.172-.667-.115-.145-.266-.24-.45-.285-.186-.045-.388-.067-.607-.067h-.12v-.63h2.76v9.75c0,.29.058.51.173.66.115.15.265.248.451.293.185.045.387.067.607.067h.12v.63h-2.536l-.165-1.35h-.061c-.22.46-.51.825-.87,1.095-.359.27-.835.405-1.425.405ZM122.908,142.725c.78,0,1.315-.262,1.605-.788.29-.525.435-1.327.435-2.407,0-1.04-.145-1.837-.435-2.393s-.83-.833-1.62-.833c-.44,0-.795.125-1.065.375-.27.25-.467.615-.592,1.095-.125.48-.188,1.07-.188,1.77,0,1.061.143,1.855.427,2.385.285.53.763.795,1.433.795Z"></path><path d="M128.474,143.535v-.63h.045c.229,0,.438-.025.622-.075.186-.05.333-.152.443-.308.109-.155.164-.387.164-.697v-4.68c0-.3-.058-.522-.172-.667-.115-.145-.266-.24-.45-.285-.186-.045-.388-.068-.607-.068h-.045v-.63h2.31l.285,1.485h.075c.13-.3.27-.575.42-.825s.35-.448.6-.593c.25-.145.596-.217,1.035-.217.55,0,.958.095,1.223.285s.397.46.397.81c0,.31-.107.565-.322.765-.215.2-.572.3-1.072.3,0-.28-.025-.505-.075-.675-.05-.17-.133-.295-.248-.375-.114-.08-.272-.12-.472-.12-.28,0-.516.11-.705.33-.19.22-.341.5-.45.84-.11.34-.19.692-.24,1.057-.05.365-.075.693-.075.982v2.355c0,.29.058.507.173.652s.265.24.45.285c.185.045.387.067.607.067h.42v.63h-4.335Z"></path><path d="M137.819,143.685c-.44,0-.838-.087-1.192-.262-.355-.175-.633-.44-.833-.795-.2-.354-.3-.802-.3-1.342,0-.8.282-1.39.848-1.77.564-.38,1.422-.59,2.572-.63l1.245-.045v-.9c0-.36-.03-.677-.09-.952-.061-.275-.19-.493-.391-.653-.2-.16-.505-.24-.915-.24-.38,0-.67.07-.869.21-.2.14-.333.333-.397.578-.065.245-.098.527-.098.847-.42,0-.738-.072-.953-.217s-.322-.388-.322-.728c0-.35.122-.63.367-.84s.573-.362.983-.458c.409-.095.859-.143,1.35-.143.92,0,1.607.195,2.062.585s.683,1.06.683,2.01v3.885c0,.28.03.498.09.652.06.155.16.265.3.33.14.065.32.098.54.098h.045v.63h-2.024l-.24-1.29h-.12c-.21.28-.415.528-.615.743s-.433.385-.697.51-.607.188-1.027.188ZM138.164,142.755c.41,0,.763-.085,1.058-.255.295-.17.525-.412.69-.728.164-.315.247-.682.247-1.103v-1.215l-.96.045c-.57.021-1.018.105-1.343.255-.325.15-.558.357-.697.622-.141.265-.21.593-.21.983,0,.31.045.567.135.772s.226.36.405.465.405.158.675.158Z"></path><path d="M144.313,136.919c-.07-.21-.152-.372-.247-.487-.096-.115-.205-.195-.33-.24-.126-.045-.288-.068-.488-.068h-.045v-.63h3.705v.63h-.194c-.301,0-.525.043-.676.127-.149.085-.225.253-.225.503,0,.08.013.18.037.3.025.12.053.235.083.345l.705,2.52c.069.24.137.508.202.803s.128.575.188.84c.061.265.105.483.135.653h.045c.03-.17.078-.375.143-.615.065-.24.141-.495.226-.765s.167-.525.247-.765l1.561-4.53h.944l1.5,4.44c.061.18.123.373.188.578.065.205.128.413.188.623.061.21.115.405.165.585s.085.33.105.45h.045c.05-.25.122-.558.218-.923.095-.365.217-.787.367-1.267l.75-2.415c.04-.13.072-.268.098-.413.024-.145.037-.257.037-.337,0-.26-.082-.448-.247-.562-.165-.115-.413-.173-.743-.173h-.104v-.63h3.21v.63h-.195c-.189,0-.35.028-.479.083-.13.055-.245.167-.346.337-.1.17-.199.42-.3.75l-1.935,6.24h-1.2l-2.055-6.27-2.13,6.27h-1.186l-1.965-6.615Z"></path><path d="M156.538,143.535v-.63h.12c.229,0,.438-.025.622-.075.186-.05.333-.152.443-.308.109-.155.164-.387.164-.697v-4.68c0-.3-.055-.522-.164-.667-.11-.145-.256-.24-.436-.285-.18-.045-.38-.068-.6-.068h-.075v-.63h2.43l.195,1.215h.075c.21-.38.432-.667.667-.862s.492-.328.772-.397.58-.105.9-.105c.79,0,1.407.232,1.853.697.444.465.667,1.213.667,2.243v3.54c0,.31.048.542.143.697.095.155.228.258.397.308.17.05.365.075.585.075h.075v.63h-2.61v-5.175c0-.65-.122-1.155-.367-1.515s-.673-.54-1.282-.54c-.45,0-.808.112-1.072.337-.266.225-.455.523-.57.893-.115.37-.173.77-.173,1.2v3.165c0,.29.055.507.165.652s.255.24.436.285c.18.045.38.067.6.067h.075v.63h-4.035Z"></path><path d="M173.293,143.685c-.76,0-1.312-.172-1.657-.518-.345-.345-.518-.947-.518-1.807v-5.01h-1.14v-.6c.18,0,.38-.037.6-.112s.41-.197.57-.368c.17-.18.31-.4.42-.66.11-.26.2-.58.27-.96h.69v1.845h1.965v.855h-1.965v5.055c0,.51.105.885.315,1.125.21.24.484.36.824.36.181,0,.346-.01.495-.03.15-.02.306-.045.465-.075v.66c-.13.06-.324.115-.585.165-.26.05-.51.075-.75.075Z"></path><path d="M179.278,143.685c-1.08,0-1.93-.345-2.55-1.035-.62-.69-.93-1.74-.93-3.15,0-1.4.297-2.442.893-3.127.595-.685,1.472-1.027,2.632-1.027,1.08,0,1.931.343,2.551,1.027.619.685.93,1.728.93,3.127,0,1.41-.298,2.46-.893,3.15-.595.69-1.473,1.035-2.633,1.035ZM179.309,142.905c.5,0,.9-.127,1.2-.383.3-.255.515-.637.645-1.147.13-.51.195-1.135.195-1.875,0-1.12-.155-1.959-.465-2.52-.311-.56-.84-.84-1.59-.84s-1.278.28-1.583.84c-.305.561-.457,1.4-.457,2.52s.154,1.968.465,2.542c.31.575.84.863,1.59.863Z"></path><path d="M190.679,143.685c-.501,0-.936-.06-1.306-.18-.37-.12-.657-.298-.862-.533s-.308-.527-.308-.877c0-.27.055-.48.165-.63.11-.15.237-.255.383-.315.145-.06.277-.09.397-.09,0,.52.117.968.353,1.343.234.375.657.562,1.268.562.529,0,.938-.127,1.223-.383.284-.255.427-.583.427-.982,0-.25-.052-.455-.157-.615-.104-.16-.29-.317-.555-.473-.266-.155-.643-.337-1.133-.547-.51-.23-.933-.453-1.268-.667-.335-.215-.585-.465-.75-.75-.165-.285-.247-.643-.247-1.073,0-.68.257-1.202.772-1.567.515-.365,1.197-.547,2.047-.547.48,0,.883.062,1.208.188s.57.292.735.502c.164.21.247.44.247.69,0,.27-.093.487-.277.652-.186.165-.453.248-.803.248,0-.5-.104-.89-.315-1.17-.21-.28-.534-.42-.975-.42-.51,0-.875.112-1.095.337-.221.225-.33.513-.33.862,0,.25.062.46.188.63s.325.328.6.472c.275.145.633.308,1.073.488.529.22.96.44,1.289.66.33.22.573.475.728.765.155.29.233.645.233,1.065,0,.78-.271,1.368-.811,1.763s-1.255.592-2.145.592Z"></path><path d="M198.538,143.685c-.66,0-1.248-.14-1.763-.42s-.92-.722-1.215-1.328c-.295-.605-.442-1.397-.442-2.377,0-1.07.147-1.913.442-2.527.295-.615.695-1.05,1.2-1.305s1.072-.382,1.702-.382c.42,0,.83.055,1.23.165.399.11.729.277.989.502.261.225.391.513.391.862,0,.23-.051.415-.15.555s-.247.24-.442.3-.442.09-.742.09c0-.32-.038-.61-.113-.87-.074-.26-.202-.467-.382-.623-.181-.155-.44-.232-.78-.232-.38,0-.713.1-.997.3-.285.2-.506.55-.66,1.05-.155.5-.232,1.2-.232,2.1,0,.71.077,1.3.232,1.77.154.47.397.82.728,1.05s.765.345,1.305.345c.31,0,.595-.045.855-.135.26-.09.487-.215.682-.375.195-.16.348-.34.458-.54.08.06.143.138.188.232.045.095.067.213.067.353,0,.23-.095.455-.285.675-.189.22-.473.403-.848.548-.375.145-.847.217-1.417.217Z"></path><path d="M204.748,143.685c-.44,0-.838-.087-1.192-.262-.355-.175-.633-.44-.833-.795-.2-.354-.3-.802-.3-1.342,0-.8.282-1.39.848-1.77.564-.38,1.422-.59,2.572-.63l1.245-.045v-.9c0-.36-.03-.677-.09-.952-.061-.275-.19-.493-.391-.653-.2-.16-.505-.24-.915-.24-.38,0-.67.07-.869.21-.2.14-.333.333-.397.578-.065.245-.098.527-.098.847-.42,0-.738-.072-.953-.217s-.322-.388-.322-.728c0-.35.122-.63.367-.84s.573-.362.983-.458c.409-.095.859-.143,1.35-.143.92,0,1.607.195,2.062.585s.683,1.06.683,2.01v3.885c0,.28.03.498.09.652.06.155.16.265.3.33.14.065.32.098.54.098h.045v.63h-2.024l-.24-1.29h-.12c-.21.28-.415.528-.615.743s-.433.385-.697.51-.607.188-1.027.188ZM205.093,142.755c.41,0,.763-.085,1.058-.255.295-.17.525-.412.69-.728.164-.315.247-.682.247-1.103v-1.215l-.96.045c-.57.021-1.018.105-1.343.255-.325.15-.558.357-.697.622-.141.265-.21.593-.21.983,0,.31.045.567.135.772s.226.36.405.465.405.158.675.158Z"></path><path d="M210.312,143.535v-.63h.194c.23,0,.438-.025.623-.075.185-.05.332-.152.442-.308.109-.155.165-.387.165-.697v-8.04c0-.3-.058-.522-.173-.667s-.265-.24-.45-.285c-.185-.045-.388-.067-.607-.067h-.194v-.63h2.835v9.69c0,.31.055.542.165.697.109.155.26.258.449.308.19.05.396.075.615.075h.195v.63h-4.26Z"></path><path d="M219.072,143.685c-1.09,0-1.942-.36-2.558-1.08-.614-.72-.922-1.73-.922-3.03,0-1.4.29-2.455.87-3.165.579-.71,1.399-1.065,2.46-1.065.97,0,1.732.3,2.287.9s.833,1.495.833,2.685v.69h-4.995c.02,1.09.217,1.882.592,2.377s.923.743,1.643.743c.521,0,.963-.107,1.328-.323.364-.215.638-.458.817-.728.069.03.135.09.195.18.06.09.09.2.09.33,0,.2-.096.415-.285.645-.19.23-.48.427-.87.592s-.885.248-1.485.248ZM220.527,138.81c0-.8-.122-1.442-.367-1.927s-.668-.728-1.268-.728c-.55,0-.978.228-1.282.683-.306.455-.482,1.112-.533,1.972h3.45Z"></path><path d="M224.667,143.64c-.26,0-.482-.075-.668-.225-.185-.15-.277-.415-.277-.795,0-.39.093-.657.277-.802.186-.145.408-.218.668-.218s.482.073.668.218c.185.145.277.412.277.802,0,.38-.093.645-.277.795-.186.15-.408.225-.668.225Z"></path><rect fill="none" height="93" stroke="#000" stroke-miterlimit="10" stroke-width="2" width="135" x="37.598" y="15.927"></rect><path d="M100.592,8.04l.165-.63h.195c.19,0,.357-.025.502-.075s.3-.15.465-.3c.165-.15.362-.37.593-.66l1.92-2.325-.975-2.34c-.12-.29-.225-.513-.315-.667-.09-.155-.19-.263-.3-.323-.11-.06-.265-.09-.465-.09h-.195l.12-.63h1.995l1.14,3.03,1.995-3.03h1.845l-.165.63h-.194c-.19,0-.36.03-.51.09-.15.061-.303.168-.458.323-.155.154-.353.377-.593.667l-1.575,2.025,1.035,2.595c.11.29.208.513.292.667.085.155.19.263.315.323.125.06.282.09.472.09h.195l-.12.63h-2.01l-1.215-3.3-2.25,3.3h-1.905Z"></path><path d="M180.759,69.681c-.25,0-.5-.024-.75-.074-.25-.051-.47-.115-.66-.195l.226-.75c.12.04.268.077.442.112s.418.053.728.053c.49,0,.942-.088,1.357-.263s.797-.4,1.147-.675c.35-.275.668-.57.952-.885.285-.315.538-.618.758-.908l-1.979-6.63c-.061-.199-.133-.357-.218-.473-.085-.114-.192-.197-.322-.247-.131-.05-.296-.075-.495-.075h-.15l.12-.63h2.19l1.17,4.05c.079.261.165.57.255.931.09.359.172.704.247,1.034s.117.58.128.75h.045c.38-.579.723-1.164,1.027-1.755.305-.59.548-1.162.728-1.717.18-.556.27-1.058.27-1.508,0-.14-.022-.272-.067-.397s-.12-.226-.225-.3c-.105-.075-.253-.113-.442-.113,0-.359.103-.635.308-.824.204-.19.427-.285.667-.285.32,0,.57.104.75.314.181.21.271.525.271.945,0,.521-.107,1.093-.323,1.718-.215.625-.52,1.3-.915,2.024-.395.726-.862,1.498-1.402,2.317-.49.761-.942,1.42-1.357,1.98-.415.56-.832,1.022-1.252,1.388-.42.364-.888.638-1.402.817-.516.18-1.123.27-1.823.27Z"></path></svg>