<svg xmlns="http://www.w3.org/2000/svg" width="1200" height="720" viewBox="0 0 1200 720" role="img" aria-labelledby="title desc">
<title id="title">University funding</title><desc id="desc">The pie charts show the sources of funding for a university in 2005 and 2025.</desc>
<defs><marker id="arrow" markerWidth="10" markerHeight="10" refX="8" refY="3" orient="auto"><path d="M0 0 L9 3 L0 6 Z" fill="#617082"/></marker></defs>
<rect width="1200" height="720" fill="white"/>
<g font-family="Arial, Helvetica, sans-serif">
<text x="600" y="67" text-anchor="middle" font-size="34" font-weight="700" fill="#273342">University funding</text>
<line x1="80" y1="92" x2="1120" y2="92" stroke="#d9dfe5" stroke-width="1" />
<text x="343" y="145" text-anchor="middle" font-size="26" font-weight="700" fill="#273342">2005</text><path d="M343 360 L343 200 A160 160 0 1 1 248.95435963320438 489.4427190999916 Z" fill="#364b61" stroke="white" stroke-width="3"/><text x="429.546142982859" y="395.12054648812017" text-anchor="middle" font-size="19" font-weight="700" fill="white">60%</text><path d="M343 360 L248.95435963320438 489.4427190999916 A160 160 0 0 1 190.8309573927754 310.5572809000085 Z" fill="#7890a5" stroke="white" stroke-width="3"/><text x="256.45385701714105" y="395.1205464881203" text-anchor="middle" font-size="19" font-weight="700" fill="white">20%</text><path d="M343 360 L190.8309573927754 310.5572809000085 A160 160 0 0 1 248.95435963320426 230.55728090000844 Z" fill="#b5c3cf" stroke="white" stroke-width="3"/><text x="269.3794535118798" y="313.511542041385" text-anchor="middle" font-size="19" font-weight="700" fill="#273342">10%</text><path d="M343 360 L248.95435963320426 230.55728090000844 A160 160 0 0 1 293.5572809000084 207.83095739277545 Z" fill="#dbe3e9" stroke="white" stroke-width="3"/><text x="289.883111530473" y="262.75223666996095" text-anchor="middle" font-size="16" font-weight="700" fill="#273342">5%</text><path d="M343 360 L293.5572809000084 207.83095739277545 A160 160 0 0 1 342.99999999999994 200 Z" fill="#9eacb7" stroke="white" stroke-width="3"/><text x="324.69716759029296" y="251.44046415036888" text-anchor="middle" font-size="16" font-weight="700" fill="#273342">5%</text><text x="857" y="145" text-anchor="middle" font-size="26" font-weight="700" fill="#273342">2025</text><path d="M857 360 L857 200 A160 160 0 0 1 951.0456403667957 489.44271909999156 Z" fill="#364b61" stroke="white" stroke-width="3"/><text x="943.546142982859" y="338.8794535118798" text-anchor="middle" font-size="19" font-weight="700" fill="white">40%</text><path d="M857 360 L951.0456403667957 489.44271909999156 A160 160 0 0 1 704.8309573927754 409.4427190999916 Z" fill="#7890a5" stroke="white" stroke-width="3"/><text x="828.8794535118798" y="453.546142982859" text-anchor="middle" font-size="19" font-weight="700" fill="white">30%</text><path d="M857 360 L704.8309573927754 409.4427190999916 A160 160 0 0 1 727.5572809000084 265.9543596332043 Z" fill="#b5c3cf" stroke="white" stroke-width="3"/><text x="767.1203610058425" y="352.764463681339" text-anchor="middle" font-size="19" font-weight="700" fill="#273342">15%</text><path d="M857 360 L727.5572809000084 265.9543596332043 A160 160 0 0 1 807.5572809000084 207.83095739277545 Z" fill="#dbe3e9" stroke="white" stroke-width="3"/><text x="803.5115420413849" y="293.3794535118798" text-anchor="middle" font-size="19" font-weight="700" fill="#273342">10%</text><path d="M857 360 L807.5572809000084 207.83095739277545 A160 160 0 0 1 857 200 Z" fill="#9eacb7" stroke="white" stroke-width="3"/><text x="838.697167590293" y="251.44046415036888" text-anchor="middle" font-size="16" font-weight="700" fill="#273342">5%</text><rect x="80" y="590" width="23" height="19" rx="0" fill="#364b61" stroke="none" stroke-width="2" /><text x="112" y="607" text-anchor="start" font-size="18" font-weight="400" fill="#273342">Government</text><rect x="288" y="590" width="23" height="19" rx="0" fill="#7890a5" stroke="none" stroke-width="2" /><text x="320" y="607" text-anchor="start" font-size="18" font-weight="400" fill="#273342">Student fees</text><rect x="496" y="590" width="23" height="19" rx="0" fill="#b5c3cf" stroke="none" stroke-width="2" /><text x="528" y="607" text-anchor="start" font-size="18" font-weight="400" fill="#273342">Donations</text><rect x="704" y="590" width="23" height="19" rx="0" fill="#dbe3e9" stroke="none" stroke-width="2" /><text x="736" y="607" text-anchor="start" font-size="18" font-weight="400" fill="#273342">Research</text><rect x="912" y="590" width="23" height="19" rx="0" fill="#9eacb7" stroke="none" stroke-width="2" /><text x="944" y="607" text-anchor="start" font-size="18" font-weight="400" fill="#273342">Other</text>
</g></svg>