<svg xmlns="http://www.w3.org/2000/svg" version="1.1" style="font-family:Lato, &#x27;Helvetica Neue&#x27;, Helvetica, Arial, &#x27;Liberation Sans&#x27;, sans-serif;font-feature-settings:&quot;liga&quot;, &quot;kern&quot;, &quot;calt&quot;, &quot;lnum&quot;;text-rendering:geometricPrecision;-webkit-font-smoothing:antialiased;font-size:18px;background-color:#fff" width="850" height="600" viewBox="0 0 850 600"><defs><style>@import url(https://ourworldindata.org/fonts.css)</style></defs><defs><pattern id="noDataPattern" patternUnits="userSpaceOnUse" width="4" height="4" patternTransform="rotate(-45 2 2)"><path d="M -1,2 l 6,0" stroke="#ccc" stroke-width="0.7"></path></pattern><pattern id="inapplicablePattern" patternUnits="userSpaceOnUse" width="4" height="4" patternTransform="rotate(-45 2 2) scale(1)"><rect width="4" height="4" fill="#ccc"></rect><path d="M -1,2 l 6,0" stroke="#fff" stroke-width="0.7"></path></pattern></defs><g id="header" class="HeaderView"><g id="logo" transform="translate(769, 16) scale(1)"><svg className="owidLogo" xmlns="http://www.w3.org/2000/svg" width="65" height="36" viewBox="0 0 65 36"  fill="none"><path fill="#002147" d="M0 0h64.8v36H0z"/><path fill="#CE261E" d="M0 33.3h64.8V36H0z"/><path fill="#fff" d="M13.796 10.575c0 .636-.106 1.226-.318 1.77a4.193 4.193 0 0 1-.894 1.404 4.084 4.084 0 0 1-1.386.93c-.54.22-1.138.33-1.794.33-.656 0-1.256-.11-1.8-.33a4.149 4.149 0 0 1-1.392-.93 4.193 4.193 0 0 1-.894-1.404A4.833 4.833 0 0 1 5 10.575c0-.636.106-1.224.318-1.764a4.18 4.18 0 0 1 .894-1.41 4.076 4.076 0 0 1 1.392-.924 4.684 4.684 0 0 1 1.8-.336c.656 0 1.254.112 1.794.336.54.224 1.002.534 1.386.93.384.392.682.86.894 1.404.212.54.318 1.128.318 1.764Zm-1.656 0c0-.476-.064-.902-.192-1.278a2.671 2.671 0 0 0-.54-.966 2.332 2.332 0 0 0-.864-.606 2.94 2.94 0 0 0-1.14-.21c-.424 0-.806.07-1.146.21-.34.14-.63.342-.87.606a2.742 2.742 0 0 0-.546.966 3.955 3.955 0 0 0-.192 1.278c0 .476.064.904.192 1.284.128.376.31.696.546.96.24.26.53.46.87.6.34.14.722.21 1.146.21.424 0 .804-.07 1.14-.21.34-.14.628-.34.864-.6.236-.264.416-.584.54-.96a4.01 4.01 0 0 0 .192-1.284ZM16.104 8.757v3.912c0 .376.086.668.258.876.176.204.438.306.786.306.256 0 .496-.056.72-.168a2.58 2.58 0 0 0 .636-.474V8.757h1.482v6.156h-.906c-.192 0-.318-.09-.378-.27l-.102-.492a4.65 4.65 0 0 1-.396.354 2.577 2.577 0 0 1-.438.27 2.35 2.35 0 0 1-.498.168 2.345 2.345 0 0 1-.57.066c-.336 0-.634-.056-.894-.168a1.821 1.821 0 0 1-.648-.486 2.157 2.157 0 0 1-.402-.738 3.233 3.233 0 0 1-.132-.948V8.757h1.482ZM21.328 14.913V8.757h.87c.152 0 .258.028.318.084.06.056.1.152.12.288l.09.744c.22-.38.478-.68.774-.9.296-.22.628-.33.996-.33.304 0 .556.07.756.21l-.192 1.11c-.012.072-.038.124-.078.156a.278.278 0 0 1-.162.042 1.01 1.01 0 0 1-.246-.042 1.646 1.646 0 0 0-.414-.042c-.308 0-.572.086-.792.258-.22.168-.406.416-.558.744v3.834h-1.482ZM27.347 6.237h1.356a.57.57 0 0 1 .348.102c.096.064.16.152.192.264l1.476 5.19c.036.128.068.268.096.42.032.148.062.306.09.474a5.968 5.968 0 0 1 .228-.894l1.704-5.19a.575.575 0 0 1 .186-.252.543.543 0 0 1 .348-.114h.474a.57.57 0 0 1 .348.102.497.497 0 0 1 .192.264l1.692 5.19c.088.256.164.54.228.852.028-.156.056-.306.084-.45.032-.144.064-.278.096-.402l1.476-5.19c.028-.1.09-.186.186-.258a.563.563 0 0 1 .348-.108h1.266l-2.694 8.676h-1.458l-1.896-5.928-.078-.246a9.504 9.504 0 0 1-.072-.282c-.024.1-.05.194-.078.282-.024.088-.048.17-.072.246l-1.914 5.928H30.04l-2.694-8.676ZM42.771 8.661c.46 0 .876.074 1.248.222.376.148.696.358.96.63s.468.604.612.996c.144.392.216.83.216 1.314 0 .488-.072.928-.216 1.32a2.85 2.85 0 0 1-.612 1.002 2.653 2.653 0 0 1-.96.636 3.35 3.35 0 0 1-1.248.222c-.46 0-.878-.074-1.254-.222a2.712 2.712 0 0 1-.966-.636 2.922 2.922 0 0 1-.618-1.002 3.807 3.807 0 0 1-.216-1.32c0-.484.072-.922.216-1.314.148-.392.354-.724.618-.996.268-.272.59-.482.966-.63a3.397 3.397 0 0 1 1.254-.222Zm0 5.202c.512 0 .89-.172 1.134-.516.248-.344.372-.848.372-1.512s-.124-1.17-.372-1.518c-.244-.348-.622-.522-1.134-.522-.52 0-.904.176-1.152.528-.248.348-.372.852-.372 1.512s.124 1.164.372 1.512c.248.344.632.516 1.152.516ZM46.723 14.913V8.757h.87c.152 0 .258.028.318.084.06.056.1.152.12.288l.09.744c.22-.38.478-.68.774-.9.296-.22.628-.33.996-.33.304 0 .556.07.756.21l-.192 1.11c-.012.072-.038.124-.078.156a.278.278 0 0 1-.162.042 1.01 1.01 0 0 1-.246-.042 1.646 1.646 0 0 0-.414-.042c-.308 0-.572.086-.792.258-.22.168-.406.416-.558.744v3.834h-1.482ZM52.96 5.997v8.916h-1.482V5.997h1.482ZM58.732 14.913c-.192 0-.318-.09-.378-.27l-.12-.594a3.68 3.68 0 0 1-.402.39c-.14.116-.292.216-.456.3-.16.084-.334.148-.522.192a2.372 2.372 0 0 1-.6.072c-.336 0-.644-.07-.924-.21a2.098 2.098 0 0 1-.726-.606 3.033 3.033 0 0 1-.468-.99 5.072 5.072 0 0 1-.162-1.344c0-.456.062-.88.186-1.272s.302-.732.534-1.02c.232-.288.51-.512.834-.672a2.384 2.384 0 0 1 1.092-.246 2.103 2.103 0 0 1 1.536.606V5.997h1.482v8.916h-.906Zm-1.974-1.086c.308 0 .57-.064.786-.192.216-.128.42-.31.612-.546v-2.76a1.452 1.452 0 0 0-.552-.432 1.597 1.597 0 0 0-.636-.126c-.224 0-.428.042-.612.126a1.21 1.21 0 0 0-.462.384c-.124.168-.22.384-.288.648-.068.26-.102.568-.102.924 0 .36.028.666.084.918.06.248.144.452.252.612.108.156.24.27.396.342.156.068.33.102.522.102ZM16.331 20.757v6.156H14.85v-6.156h1.481Zm.223-1.794a.844.844 0 0 1-.078.36.963.963 0 0 1-.21.294.995.995 0 0 1-.3.204.963.963 0 0 1-.372.072.948.948 0 0 1-.367-.072 1.018 1.018 0 0 1-.498-.498.963.963 0 0 1 0-.732.995.995 0 0 1 .205-.3.929.929 0 0 1 .293-.198.899.899 0 0 1 .738 0 .912.912 0 0 1 .3.198.943.943 0 0 1 .288.672ZM17.771 26.913v-6.156h.906c.192 0 .318.09.378.27l.102.486a2.934 2.934 0 0 1 .828-.618c.156-.076.322-.134.498-.174.176-.04.368-.06.576-.06.336 0 .634.058.894.174.26.112.476.272.648.48.176.204.308.45.396.738.092.284.138.598.138.942v3.918h-1.482v-3.918c0-.376-.088-.666-.264-.87-.172-.208-.432-.312-.78-.312-.256 0-.496.058-.72.174a2.58 2.58 0 0 0-.636.474v4.452h-1.482ZM34.22 22.575c0 .636-.106 1.22-.318 1.752-.212.532-.51.99-.894 1.374a4 4 0 0 1-1.386.894 4.87 4.87 0 0 1-1.794.318h-3.312v-8.676h3.312a4.79 4.79 0 0 1 1.794.324 4 4 0 0 1 1.386.894c.384.38.682.836.894 1.368.212.532.318 1.116.318 1.752Zm-1.65 0c0-.476-.064-.902-.192-1.278a2.68 2.68 0 0 0-.546-.96 2.332 2.332 0 0 0-.864-.606 2.94 2.94 0 0 0-1.14-.21h-1.686v6.108h1.686c.424 0 .804-.07 1.14-.21.34-.14.628-.34.864-.6a2.75 2.75 0 0 0 .546-.96 4.01 4.01 0 0 0 .192-1.284ZM39.98 26.913h-.665c-.14 0-.25-.02-.33-.06-.08-.044-.14-.13-.18-.258l-.132-.438c-.156.14-.31.264-.462.372a2.804 2.804 0 0 1-.462.264c-.16.072-.33.126-.51.162-.18.036-.38.054-.6.054-.26 0-.5-.034-.72-.102a1.618 1.618 0 0 1-.57-.318 1.448 1.448 0 0 1-.366-.522 1.852 1.852 0 0 1-.132-.726c0-.232.06-.46.18-.684.124-.228.328-.432.612-.612.284-.184.662-.336 1.134-.456.472-.12 1.058-.188 1.758-.204v-.36c0-.412-.088-.716-.264-.912-.172-.2-.424-.3-.756-.3a1.837 1.837 0 0 0-1.02.276c-.116.068-.224.13-.324.186a.664.664 0 0 1-.33.084.429.429 0 0 1-.258-.078.614.614 0 0 1-.174-.192l-.27-.474c.708-.648 1.562-.972 2.562-.972.36 0 .68.06.96.18.284.116.524.28.72.492.196.208.344.458.444.75.104.292.156.612.156.96v3.888Zm-2.88-.924c.153 0 .293-.014.42-.042.129-.028.249-.07.36-.126.117-.056.227-.124.33-.204.109-.084.217-.182.325-.294v-1.038c-.432.02-.794.058-1.086.114-.288.052-.52.12-.696.204a.923.923 0 0 0-.378.294.664.664 0 0 0-.108.366c0 .26.076.446.228.558.156.112.358.168.606.168ZM43.22 27.01c-.532 0-.942-.15-1.23-.45-.288-.305-.432-.723-.432-1.255v-3.438h-.624a.31.31 0 0 1-.21-.078c-.056-.052-.084-.13-.084-.234v-.588l.99-.162.312-1.68a.302.302 0 0 1 .108-.186.365.365 0 0 1 .222-.066h.768v1.938h1.62v1.056h-1.62v3.336c0 .192.048.342.144.45a.488.488 0 0 0 .384.162c.092 0 .168-.01.228-.03.064-.024.118-.048.162-.072.048-.024.09-.046.126-.066a.194.194 0 0 1 .108-.036.16.16 0 0 1 .108.036c.028.02.058.052.09.096l.444.72c-.216.18-.464.316-.744.408a2.77 2.77 0 0 1-.87.138ZM50.423 26.913h-.666c-.14 0-.25-.02-.33-.06-.08-.044-.14-.13-.18-.258l-.132-.438c-.156.14-.31.264-.462.372a2.804 2.804 0 0 1-.462.264c-.16.072-.33.126-.51.162-.18.036-.38.054-.6.054-.26 0-.5-.034-.72-.102a1.618 1.618 0 0 1-.57-.318 1.448 1.448 0 0 1-.366-.522 1.852 1.852 0 0 1-.132-.726c0-.232.06-.46.18-.684.124-.228.328-.432.612-.612.284-.184.662-.336 1.134-.456.472-.12 1.058-.188 1.758-.204v-.36c0-.412-.088-.716-.264-.912-.172-.2-.424-.3-.756-.3a1.837 1.837 0 0 0-1.02.276c-.116.068-.224.13-.324.186a.664.664 0 0 1-.33.084.429.429 0 0 1-.258-.078.614.614 0 0 1-.174-.192l-.27-.474c.708-.648 1.562-.972 2.562-.972.36 0 .68.06.96.18.284.116.524.28.72.492.196.208.344.458.444.75.104.292.156.612.156.96v3.888Zm-2.88-.924c.152 0 .292-.014.42-.042.128-.028.248-.07.36-.126.116-.056.226-.124.33-.204.108-.084.216-.182.324-.294v-1.038c-.432.02-.794.058-1.086.114-.288.052-.52.12-.696.204a.923.923 0 0 0-.378.294.664.664 0 0 0-.108.366c0 .26.076.446.228.558.156.112.358.168.606.168Z"/></svg></g><a id="title" href="https://ourworldindata.org/grapher/share-of-adults-defined-as-obese?tab=line&amp;time=1980..2024&amp;country=AFG~ALB~ARG~AUS~DZA" style="font-family:&#x27;Playfair Display&#x27;, Georgia, &#x27;Times New Roman&#x27;, &#x27;Liberation Serif&#x27;, serif"><g class="markdown-text-wrap"><text x="16" y="40.25" style="font-size:25px;font-weight:600;font-family:&#x27;Playfair Display&#x27;, Georgia, &#x27;Times New Roman&#x27;, &#x27;Liberation Serif&#x27;, serif;line-height:1.2" fill="#2d2e2d"><tspan x="16" y="40.25">Share of adults who are obese<tspan dx="6" style="font-size:18px;font-weight:700;font-family:Lato, &#x27;Helvetica Neue&#x27;, Helvetica, Arial, &#x27;Liberation Sans&#x27;, sans-serif;fill:#767676">1980 to 2024</tspan></tspan></text></g></a><g id="subtitle" class="markdown-text-wrap"><text x="16" y="66.55" style="font-size:15px;line-height:1.2" fill="#5b5b5b"><tspan x="16" y="66.55"><tspan class="dod-span" data-id="obesity">Obesity</tspan> is defined here as a body mass index (BMI) above 30. BMI is a person&#x27;s weight in kilograms divided by</tspan><tspan x="16" y="84.55">the square of their height in meters.</tspan></text></g></g><g id="chart-area" style="pointer-events:none"><g id="horizontal-axis" class="HorizontalAxis"><g id="tick-marks"><line id="1980" x1="47.46" y1="531.4" x2="47.46" y2="536.9" stroke="#999" stroke-width="1"></line><line id="2024" x1="733.99" y1="531.4" x2="733.99" y2="536.9" stroke="#999" stroke-width="1"></line><line id="1990" x1="203.49" y1="531.4" x2="203.49" y2="536.9" stroke="#999" stroke-width="1"></line><line id="2000" x1="359.52" y1="531.4" x2="359.52" y2="536.9" stroke="#999" stroke-width="1"></line><line id="2010" x1="515.55" y1="531.4" x2="515.55" y2="536.9" stroke="#999" stroke-width="1"></line><line id="2020" x1="671.58" y1="531.4" x2="671.58" y2="536.9" stroke="#999" stroke-width="1"></line></g><g id="tick-labels"><text x="47.46" y="550.4" fill="#5b5b5b" text-anchor="start" font-size="13.5">1980</text><text x="733.99" y="550.4" fill="#5b5b5b" text-anchor="end" font-size="13.5">2024</text><text x="203.49" y="550.4" fill="#5b5b5b" text-anchor="middle" font-size="13.5">1990</text><text x="359.52" y="550.4" fill="#5b5b5b" text-anchor="middle" font-size="13.5">2000</text><text x="515.55" y="550.4" fill="#5b5b5b" text-anchor="middle" font-size="13.5">2010</text><text x="671.58" y="550.4" fill="#5b5b5b" text-anchor="middle" font-size="13.5">2020</text></g></g><g id="vertical-axis" class="VerticalAxis"><g id="tick-labels"><text x="42.46" y="531.9" dy=".32em" text-anchor="end" fill="#5b5b5b" font-size="13.5">0%</text><text x="42.46" y="479.16" dy=".32em" text-anchor="end" fill="#5b5b5b" font-size="13.5">5%</text><text x="42.46" y="426.42" dy=".32em" text-anchor="end" fill="#5b5b5b" font-size="13.5">10%</text><text x="42.46" y="373.69" dy=".32em" text-anchor="end" fill="#5b5b5b" font-size="13.5">15%</text><text x="42.46" y="320.95" dy=".32em" text-anchor="end" fill="#5b5b5b" font-size="13.5">20%</text><text x="42.46" y="268.21" dy=".32em" text-anchor="end" fill="#5b5b5b" font-size="13.5">25%</text><text x="42.46" y="215.48" dy=".32em" text-anchor="end" fill="#5b5b5b" font-size="13.5">30%</text><text x="42.46" y="162.74" dy=".32em" text-anchor="end" fill="#5b5b5b" font-size="13.5">35%</text><text x="42.46" y="110" dy=".32em" text-anchor="end" fill="#5b5b5b" font-size="13.5">40%</text></g></g><g id="horizontal-grid-lines" class="AxisGridLines horizontalLines"><line id="0%" class="zero-line" x1="47.46" y1="531.9" x2="733.99" y2="531.9" stroke="#999"></line><line id="5%" x1="47.46" y1="479.16" x2="733.99" y2="479.16" stroke="#ddd" stroke-dasharray="4,4"></line><line id="10%" x1="47.46" y1="426.42" x2="733.99" y2="426.42" stroke="#ddd" stroke-dasharray="4,4"></line><line id="15%" x1="47.46" y1="373.69" x2="733.99" y2="373.69" stroke="#ddd" stroke-dasharray="4,4"></line><line id="20%" x1="47.46" y1="320.95" x2="733.99" y2="320.95" stroke="#ddd" stroke-dasharray="4,4"></line><line id="25%" x1="47.46" y1="268.21" x2="733.99" y2="268.21" stroke="#ddd" stroke-dasharray="4,4"></line><line id="30%" x1="47.46" y1="215.48" x2="733.99" y2="215.48" stroke="#ddd" stroke-dasharray="4,4"></line><line id="35%" x1="47.46" y1="162.74" x2="733.99" y2="162.74" stroke="#ddd" stroke-dasharray="4,4"></line><line id="40%" x1="47.46" y1="110" x2="733.99" y2="110" stroke="#ddd" stroke-dasharray="4,4"></line></g><g id="vertical-labels" transform="translate(733.99, 0)"><g id="text-labels" style="pointer-events:none"><text id="label__Argentina" x="4" y="135.49" text-anchor="start" font-size="13.5" opacity="1"><tspan x="4" font-weight="400" fill="#2c8465">Argentina</tspan></text><text id="label__Australia" x="4" y="195.52" text-anchor="start" font-size="13.5" opacity="1"><tspan x="4" font-weight="400" fill="#6d3e91">Australia</tspan></text><text id="label__Albania" x="4" y="249.29" text-anchor="start" font-size="13.5" opacity="1"><tspan x="4" font-weight="400" fill="#b13507">Albania</tspan></text><text id="label__Algeria" x="4" y="280.88" text-anchor="start" font-size="13.5" opacity="1"><tspan x="4" font-weight="400" fill="#996d39">Algeria</tspan></text><text id="label__Afghanistan" x="4" y="338.87" text-anchor="start" font-size="13.5" opacity="1"><tspan x="4" font-weight="400" fill="#4c6a9c">Afghanistan</tspan></text></g></g><g id="lines"><path fill="none" stroke-linecap="butt" stroke-linejoin="round" stroke="#fff" id="outline__Algeria" stroke-width="2.5" d="M47.46 461.38L63.06 459.91L78.67 458.37L94.27 456.74L109.87 455L125.47 453.14L141.08 451.15L156.68 448.97L172.28 446.62L187.89 444.12L203.49 441.47L219.09 438.69L234.7 435.65L250.3 432.41L265.9 429.07L281.5 425.58L297.11 422.03L312.71 418.43L328.31 414.69L343.92 410.77L359.52 406.69L375.12 402.41L390.73 397.95L406.33 393.36L421.93 388.64L437.53 383.8L453.14 378.82L468.74 373.66L484.34 368.29L499.95 362.71L515.55 356.93L531.15 350.99L546.75 344.89L562.36 338.64L577.96 332.28L593.56 325.82L609.17 319.18L624.77 312.75L640.37 306.81L655.98 301.22L671.58 295.79L687.18 290.55L702.78 285.51L718.39 280.63L733.99 275.89"></path><path fill="none" stroke-linecap="butt" stroke-linejoin="round" stroke="#996d39" id="line__Algeria" stroke-width="1.5" stroke-opacity="1" d="M47.46 461.38L63.06 459.91L78.67 458.37L94.27 456.74L109.87 455L125.47 453.14L141.08 451.15L156.68 448.97L172.28 446.62L187.89 444.12L203.49 441.47L219.09 438.69L234.7 435.65L250.3 432.41L265.9 429.07L281.5 425.58L297.11 422.03L312.71 418.43L328.31 414.69L343.92 410.77L359.52 406.69L375.12 402.41L390.73 397.95L406.33 393.36L421.93 388.64L437.53 383.8L453.14 378.82L468.74 373.66L484.34 368.29L499.95 362.71L515.55 356.93L531.15 350.99L546.75 344.89L562.36 338.64L577.96 332.28L593.56 325.82L609.17 319.18L624.77 312.75L640.37 306.81L655.98 301.22L671.58 295.79L687.18 290.55L702.78 285.51L718.39 280.63L733.99 275.89"></path><g id="datapoints__Algeria"><circle id="1980" cx="47.46" cy="461.38" r="1.8" fill="#996d39" opacity="1"></circle><circle id="1981" cx="63.06" cy="459.91" r="1.8" fill="#996d39" opacity="1"></circle><circle id="1982" cx="78.67" cy="458.37" r="1.8" fill="#996d39" opacity="1"></circle><circle id="1983" cx="94.27" cy="456.74" r="1.8" fill="#996d39" opacity="1"></circle><circle id="1984" cx="109.87" cy="455" r="1.8" fill="#996d39" opacity="1"></circle><circle id="1985" cx="125.47" cy="453.14" r="1.8" fill="#996d39" opacity="1"></circle><circle id="1986" cx="141.08" cy="451.15" r="1.8" fill="#996d39" opacity="1"></circle><circle id="1987" cx="156.68" cy="448.97" r="1.8" fill="#996d39" opacity="1"></circle><circle id="1988" cx="172.28" cy="446.62" r="1.8" fill="#996d39" opacity="1"></circle><circle id="1989" cx="187.89" cy="444.12" r="1.8" fill="#996d39" opacity="1"></circle><circle id="1990" cx="203.49" cy="441.47" r="1.8" fill="#996d39" opacity="1"></circle><circle id="1991" cx="219.09" cy="438.69" r="1.8" fill="#996d39" opacity="1"></circle><circle id="1992" cx="234.7" cy="435.65" r="1.8" fill="#996d39" opacity="1"></circle><circle id="1993" cx="250.3" cy="432.41" r="1.8" fill="#996d39" opacity="1"></circle><circle id="1994" cx="265.9" cy="429.07" r="1.8" fill="#996d39" opacity="1"></circle><circle id="1995" cx="281.5" cy="425.58" r="1.8" fill="#996d39" opacity="1"></circle><circle id="1996" cx="297.11" cy="422.03" r="1.8" fill="#996d39" opacity="1"></circle><circle id="1997" cx="312.71" cy="418.43" r="1.8" fill="#996d39" opacity="1"></circle><circle id="1998" cx="328.31" cy="414.69" r="1.8" fill="#996d39" opacity="1"></circle><circle id="1999" cx="343.92" cy="410.77" r="1.8" fill="#996d39" opacity="1"></circle><circle id="2000" cx="359.52" cy="406.69" r="1.8" fill="#996d39" opacity="1"></circle><circle id="2001" cx="375.12" cy="402.41" r="1.8" fill="#996d39" opacity="1"></circle><circle id="2002" cx="390.73" cy="397.95" r="1.8" fill="#996d39" opacity="1"></circle><circle id="2003" cx="406.33" cy="393.36" r="1.8" fill="#996d39" opacity="1"></circle><circle id="2004" cx="421.93" cy="388.64" r="1.8" fill="#996d39" opacity="1"></circle><circle id="2005" cx="437.53" cy="383.8" r="1.8" fill="#996d39" opacity="1"></circle><circle id="2006" cx="453.14" cy="378.82" r="1.8" fill="#996d39" opacity="1"></circle><circle id="2007" cx="468.74" cy="373.66" r="1.8" fill="#996d39" opacity="1"></circle><circle id="2008" cx="484.34" cy="368.29" r="1.8" fill="#996d39" opacity="1"></circle><circle id="2009" cx="499.95" cy="362.71" r="1.8" fill="#996d39" opacity="1"></circle><circle id="2010" cx="515.55" cy="356.93" r="1.8" fill="#996d39" opacity="1"></circle><circle id="2011" cx="531.15" cy="350.99" r="1.8" fill="#996d39" opacity="1"></circle><circle id="2012" cx="546.75" cy="344.89" r="1.8" fill="#996d39" opacity="1"></circle><circle id="2013" cx="562.36" cy="338.64" r="1.8" fill="#996d39" opacity="1"></circle><circle id="2014" cx="577.96" cy="332.28" r="1.8" fill="#996d39" opacity="1"></circle><circle id="2015" cx="593.56" cy="325.82" r="1.8" fill="#996d39" opacity="1"></circle><circle id="2016" cx="609.17" cy="319.18" r="1.8" fill="#996d39" opacity="1"></circle><circle id="2017" cx="624.77" cy="312.75" r="1.8" fill="#996d39" opacity="1"></circle><circle id="2018" cx="640.37" cy="306.81" r="1.8" fill="#996d39" opacity="1"></circle><circle id="2019" cx="655.98" cy="301.22" r="1.8" fill="#996d39" opacity="1"></circle><circle id="2020" cx="671.58" cy="295.79" r="1.8" fill="#996d39" opacity="1"></circle><circle id="2021" cx="687.18" cy="290.55" r="1.8" fill="#996d39" opacity="1"></circle><circle id="2022" cx="702.78" cy="285.51" r="1.8" fill="#996d39" opacity="1"></circle><circle id="2023" cx="718.39" cy="280.63" r="1.8" fill="#996d39" opacity="1"></circle><circle id="2024" cx="733.99" cy="275.89" r="1.8" fill="#996d39" opacity="1"></circle></g><path fill="none" stroke-linecap="butt" stroke-linejoin="round" stroke="#fff" id="outline__Australia" stroke-width="2.5" d="M47.46 452.33L63.06 447.88L78.67 443.1L94.27 437.98L109.87 432.57L125.47 426.96L141.08 421.17L156.68 415.2L172.28 409.07L187.89 402.75L203.49 396.14L219.09 389.16L234.7 381.86L250.3 374.35L265.9 366.64L281.5 358.86L297.11 351L312.71 342.99L328.31 335L343.92 327.13L359.52 319.42L375.12 311.89L390.73 304.62L406.33 297.63L421.93 290.93L437.53 284.53L453.14 278.5L468.74 272.88L484.34 267.69L499.95 262.8L515.55 257.95L531.15 253.2L546.75 248.67L562.36 244.14L577.96 239.46L593.56 234.64L609.17 229.78L624.77 225.01L640.37 220.34L655.98 215.54L671.58 210.26L687.18 205.01L702.78 200.13L718.39 195.31L733.99 190.52"></path><path fill="none" stroke-linecap="butt" stroke-linejoin="round" stroke="#6d3e91" id="line__Australia" stroke-width="1.5" stroke-opacity="1" d="M47.46 452.33L63.06 447.88L78.67 443.1L94.27 437.98L109.87 432.57L125.47 426.96L141.08 421.17L156.68 415.2L172.28 409.07L187.89 402.75L203.49 396.14L219.09 389.16L234.7 381.86L250.3 374.35L265.9 366.64L281.5 358.86L297.11 351L312.71 342.99L328.31 335L343.92 327.13L359.52 319.42L375.12 311.89L390.73 304.62L406.33 297.63L421.93 290.93L437.53 284.53L453.14 278.5L468.74 272.88L484.34 267.69L499.95 262.8L515.55 257.95L531.15 253.2L546.75 248.67L562.36 244.14L577.96 239.46L593.56 234.64L609.17 229.78L624.77 225.01L640.37 220.34L655.98 215.54L671.58 210.26L687.18 205.01L702.78 200.13L718.39 195.31L733.99 190.52"></path><g id="datapoints__Australia"><circle id="1980" cx="47.46" cy="452.33" r="1.8" fill="#6d3e91" opacity="1"></circle><circle id="1981" cx="63.06" cy="447.88" r="1.8" fill="#6d3e91" opacity="1"></circle><circle id="1982" cx="78.67" cy="443.1" r="1.8" fill="#6d3e91" opacity="1"></circle><circle id="1983" cx="94.27" cy="437.98" r="1.8" fill="#6d3e91" opacity="1"></circle><circle id="1984" cx="109.87" cy="432.57" r="1.8" fill="#6d3e91" opacity="1"></circle><circle id="1985" cx="125.47" cy="426.96" r="1.8" fill="#6d3e91" opacity="1"></circle><circle id="1986" cx="141.08" cy="421.17" r="1.8" fill="#6d3e91" opacity="1"></circle><circle id="1987" cx="156.68" cy="415.2" r="1.8" fill="#6d3e91" opacity="1"></circle><circle id="1988" cx="172.28" cy="409.07" r="1.8" fill="#6d3e91" opacity="1"></circle><circle id="1989" cx="187.89" cy="402.75" r="1.8" fill="#6d3e91" opacity="1"></circle><circle id="1990" cx="203.49" cy="396.14" r="1.8" fill="#6d3e91" opacity="1"></circle><circle id="1991" cx="219.09" cy="389.16" r="1.8" fill="#6d3e91" opacity="1"></circle><circle id="1992" cx="234.7" cy="381.86" r="1.8" fill="#6d3e91" opacity="1"></circle><circle id="1993" cx="250.3" cy="374.35" r="1.8" fill="#6d3e91" opacity="1"></circle><circle id="1994" cx="265.9" cy="366.64" r="1.8" fill="#6d3e91" opacity="1"></circle><circle id="1995" cx="281.5" cy="358.86" r="1.8" fill="#6d3e91" opacity="1"></circle><circle id="1996" cx="297.11" cy="351" r="1.8" fill="#6d3e91" opacity="1"></circle><circle id="1997" cx="312.71" cy="342.99" r="1.8" fill="#6d3e91" opacity="1"></circle><circle id="1998" cx="328.31" cy="335" r="1.8" fill="#6d3e91" opacity="1"></circle><circle id="1999" cx="343.92" cy="327.13" r="1.8" fill="#6d3e91" opacity="1"></circle><circle id="2000" cx="359.52" cy="319.42" r="1.8" fill="#6d3e91" opacity="1"></circle><circle id="2001" cx="375.12" cy="311.89" r="1.8" fill="#6d3e91" opacity="1"></circle><circle id="2002" cx="390.73" cy="304.62" r="1.8" fill="#6d3e91" opacity="1"></circle><circle id="2003" cx="406.33" cy="297.63" r="1.8" fill="#6d3e91" opacity="1"></circle><circle id="2004" cx="421.93" cy="290.93" r="1.8" fill="#6d3e91" opacity="1"></circle><circle id="2005" cx="437.53" cy="284.53" r="1.8" fill="#6d3e91" opacity="1"></circle><circle id="2006" cx="453.14" cy="278.5" r="1.8" fill="#6d3e91" opacity="1"></circle><circle id="2007" cx="468.74" cy="272.88" r="1.8" fill="#6d3e91" opacity="1"></circle><circle id="2008" cx="484.34" cy="267.69" r="1.8" fill="#6d3e91" opacity="1"></circle><circle id="2009" cx="499.95" cy="262.8" r="1.8" fill="#6d3e91" opacity="1"></circle><circle id="2010" cx="515.55" cy="257.95" r="1.8" fill="#6d3e91" opacity="1"></circle><circle id="2011" cx="531.15" cy="253.2" r="1.8" fill="#6d3e91" opacity="1"></circle><circle id="2012" cx="546.75" cy="248.67" r="1.8" fill="#6d3e91" opacity="1"></circle><circle id="2013" cx="562.36" cy="244.14" r="1.8" fill="#6d3e91" opacity="1"></circle><circle id="2014" cx="577.96" cy="239.46" r="1.8" fill="#6d3e91" opacity="1"></circle><circle id="2015" cx="593.56" cy="234.64" r="1.8" fill="#6d3e91" opacity="1"></circle><circle id="2016" cx="609.17" cy="229.78" r="1.8" fill="#6d3e91" opacity="1"></circle><circle id="2017" cx="624.77" cy="225.01" r="1.8" fill="#6d3e91" opacity="1"></circle><circle id="2018" cx="640.37" cy="220.34" r="1.8" fill="#6d3e91" opacity="1"></circle><circle id="2019" cx="655.98" cy="215.54" r="1.8" fill="#6d3e91" opacity="1"></circle><circle id="2020" cx="671.58" cy="210.26" r="1.8" fill="#6d3e91" opacity="1"></circle><circle id="2021" cx="687.18" cy="205.01" r="1.8" fill="#6d3e91" opacity="1"></circle><circle id="2022" cx="702.78" cy="200.13" r="1.8" fill="#6d3e91" opacity="1"></circle><circle id="2023" cx="718.39" cy="195.31" r="1.8" fill="#6d3e91" opacity="1"></circle><circle id="2024" cx="733.99" cy="190.52" r="1.8" fill="#6d3e91" opacity="1"></circle></g><path fill="none" stroke-linecap="butt" stroke-linejoin="round" stroke="#fff" id="outline__Argentina" stroke-width="2.5" d="M47.46 440.46L63.06 436.84L78.67 433.05L94.27 429.07L109.87 424.91L125.47 420.58L141.08 416.09L156.68 411.46L172.28 406.68L187.89 401.75L203.49 396.69L219.09 391.5L234.7 386.21L250.3 380.84L265.9 375.36L281.5 369.76L297.11 364.03L312.71 358.13L328.31 352.08L343.92 345.86L359.52 339.55L375.12 333.2L390.73 326.76L406.33 320.2L421.93 313.51L437.53 306.67L453.14 299.7L468.74 292.58L484.34 285.22L499.95 277.58L515.55 269.61L531.15 261.29L546.75 252.63L562.36 243.66L577.96 234.29L593.56 224.54L609.17 214.54L624.77 204.45L640.37 194.25L655.98 183.9L671.58 173.44L687.18 162.92L702.78 152.28L718.39 141.46L733.99 130.5"></path><path fill="none" stroke-linecap="butt" stroke-linejoin="round" stroke="#2c8465" id="line__Argentina" stroke-width="1.5" stroke-opacity="1" d="M47.46 440.46L63.06 436.84L78.67 433.05L94.27 429.07L109.87 424.91L125.47 420.58L141.08 416.09L156.68 411.46L172.28 406.68L187.89 401.75L203.49 396.69L219.09 391.5L234.7 386.21L250.3 380.84L265.9 375.36L281.5 369.76L297.11 364.03L312.71 358.13L328.31 352.08L343.92 345.86L359.52 339.55L375.12 333.2L390.73 326.76L406.33 320.2L421.93 313.51L437.53 306.67L453.14 299.7L468.74 292.58L484.34 285.22L499.95 277.58L515.55 269.61L531.15 261.29L546.75 252.63L562.36 243.66L577.96 234.29L593.56 224.54L609.17 214.54L624.77 204.45L640.37 194.25L655.98 183.9L671.58 173.44L687.18 162.92L702.78 152.28L718.39 141.46L733.99 130.5"></path><g id="datapoints__Argentina"><circle id="1980" cx="47.46" cy="440.46" r="1.8" fill="#2c8465" opacity="1"></circle><circle id="1981" cx="63.06" cy="436.84" r="1.8" fill="#2c8465" opacity="1"></circle><circle id="1982" cx="78.67" cy="433.05" r="1.8" fill="#2c8465" opacity="1"></circle><circle id="1983" cx="94.27" cy="429.07" r="1.8" fill="#2c8465" opacity="1"></circle><circle id="1984" cx="109.87" cy="424.91" r="1.8" fill="#2c8465" opacity="1"></circle><circle id="1985" cx="125.47" cy="420.58" r="1.8" fill="#2c8465" opacity="1"></circle><circle id="1986" cx="141.08" cy="416.09" r="1.8" fill="#2c8465" opacity="1"></circle><circle id="1987" cx="156.68" cy="411.46" r="1.8" fill="#2c8465" opacity="1"></circle><circle id="1988" cx="172.28" cy="406.68" r="1.8" fill="#2c8465" opacity="1"></circle><circle id="1989" cx="187.89" cy="401.75" r="1.8" fill="#2c8465" opacity="1"></circle><circle id="1990" cx="203.49" cy="396.69" r="1.8" fill="#2c8465" opacity="1"></circle><circle id="1991" cx="219.09" cy="391.5" r="1.8" fill="#2c8465" opacity="1"></circle><circle id="1992" cx="234.7" cy="386.21" r="1.8" fill="#2c8465" opacity="1"></circle><circle id="1993" cx="250.3" cy="380.84" r="1.8" fill="#2c8465" opacity="1"></circle><circle id="1994" cx="265.9" cy="375.36" r="1.8" fill="#2c8465" opacity="1"></circle><circle id="1995" cx="281.5" cy="369.76" r="1.8" fill="#2c8465" opacity="1"></circle><circle id="1996" cx="297.11" cy="364.03" r="1.8" fill="#2c8465" opacity="1"></circle><circle id="1997" cx="312.71" cy="358.13" r="1.8" fill="#2c8465" opacity="1"></circle><circle id="1998" cx="328.31" cy="352.08" r="1.8" fill="#2c8465" opacity="1"></circle><circle id="1999" cx="343.92" cy="345.86" r="1.8" fill="#2c8465" opacity="1"></circle><circle id="2000" cx="359.52" cy="339.55" r="1.8" fill="#2c8465" opacity="1"></circle><circle id="2001" cx="375.12" cy="333.2" r="1.8" fill="#2c8465" opacity="1"></circle><circle id="2002" cx="390.73" cy="326.76" r="1.8" fill="#2c8465" opacity="1"></circle><circle id="2003" cx="406.33" cy="320.2" r="1.8" fill="#2c8465" opacity="1"></circle><circle id="2004" cx="421.93" cy="313.51" r="1.8" fill="#2c8465" opacity="1"></circle><circle id="2005" cx="437.53" cy="306.67" r="1.8" fill="#2c8465" opacity="1"></circle><circle id="2006" cx="453.14" cy="299.7" r="1.8" fill="#2c8465" opacity="1"></circle><circle id="2007" cx="468.74" cy="292.58" r="1.8" fill="#2c8465" opacity="1"></circle><circle id="2008" cx="484.34" cy="285.22" r="1.8" fill="#2c8465" opacity="1"></circle><circle id="2009" cx="499.95" cy="277.58" r="1.8" fill="#2c8465" opacity="1"></circle><circle id="2010" cx="515.55" cy="269.61" r="1.8" fill="#2c8465" opacity="1"></circle><circle id="2011" cx="531.15" cy="261.29" r="1.8" fill="#2c8465" opacity="1"></circle><circle id="2012" cx="546.75" cy="252.63" r="1.8" fill="#2c8465" opacity="1"></circle><circle id="2013" cx="562.36" cy="243.66" r="1.8" fill="#2c8465" opacity="1"></circle><circle id="2014" cx="577.96" cy="234.29" r="1.8" fill="#2c8465" opacity="1"></circle><circle id="2015" cx="593.56" cy="224.54" r="1.8" fill="#2c8465" opacity="1"></circle><circle id="2016" cx="609.17" cy="214.54" r="1.8" fill="#2c8465" opacity="1"></circle><circle id="2017" cx="624.77" cy="204.45" r="1.8" fill="#2c8465" opacity="1"></circle><circle id="2018" cx="640.37" cy="194.25" r="1.8" fill="#2c8465" opacity="1"></circle><circle id="2019" cx="655.98" cy="183.9" r="1.8" fill="#2c8465" opacity="1"></circle><circle id="2020" cx="671.58" cy="173.44" r="1.8" fill="#2c8465" opacity="1"></circle><circle id="2021" cx="687.18" cy="162.92" r="1.8" fill="#2c8465" opacity="1"></circle><circle id="2022" cx="702.78" cy="152.28" r="1.8" fill="#2c8465" opacity="1"></circle><circle id="2023" cx="718.39" cy="141.46" r="1.8" fill="#2c8465" opacity="1"></circle><circle id="2024" cx="733.99" cy="130.5" r="1.8" fill="#2c8465" opacity="1"></circle></g><path fill="none" stroke-linecap="butt" stroke-linejoin="round" stroke="#fff" id="outline__Albania" stroke-width="2.5" d="M47.46 438.59L63.06 438.26L78.67 437.78L94.27 437.11L109.87 436.28L125.47 435.44L141.08 434.63L156.68 433.73L172.28 432.66L187.89 431.27L203.49 429.63L219.09 427.71L234.7 425.45L250.3 422.94L265.9 420.17L281.5 417.18L297.11 413.88L312.71 410.23L328.31 406.26L343.92 402.03L359.52 397.66L375.12 393.21L390.73 388.66L406.33 383.92L421.93 378.91L437.53 373.57L453.14 367.9L468.74 361.96L484.34 355.8L499.95 349.46L515.55 342.95L531.15 336.7L546.75 330.7L562.36 324.59L577.96 318.3L593.56 311.73L609.17 305.09L624.77 298.44L640.37 291.62L655.98 284.42L671.58 276.78L687.18 268.69L702.78 260.62L718.39 252.82L733.99 244.3"></path><path fill="none" stroke-linecap="butt" stroke-linejoin="round" stroke="#b13507" id="line__Albania" stroke-width="1.5" stroke-opacity="1" d="M47.46 438.59L63.06 438.26L78.67 437.78L94.27 437.11L109.87 436.28L125.47 435.44L141.08 434.63L156.68 433.73L172.28 432.66L187.89 431.27L203.49 429.63L219.09 427.71L234.7 425.45L250.3 422.94L265.9 420.17L281.5 417.18L297.11 413.88L312.71 410.23L328.31 406.26L343.92 402.03L359.52 397.66L375.12 393.21L390.73 388.66L406.33 383.92L421.93 378.91L437.53 373.57L453.14 367.9L468.74 361.96L484.34 355.8L499.95 349.46L515.55 342.95L531.15 336.7L546.75 330.7L562.36 324.59L577.96 318.3L593.56 311.73L609.17 305.09L624.77 298.44L640.37 291.62L655.98 284.42L671.58 276.78L687.18 268.69L702.78 260.62L718.39 252.82L733.99 244.3"></path><g id="datapoints__Albania"><circle id="1980" cx="47.46" cy="438.59" r="1.8" fill="#b13507" opacity="1"></circle><circle id="1981" cx="63.06" cy="438.26" r="1.8" fill="#b13507" opacity="1"></circle><circle id="1982" cx="78.67" cy="437.78" r="1.8" fill="#b13507" opacity="1"></circle><circle id="1983" cx="94.27" cy="437.11" r="1.8" fill="#b13507" opacity="1"></circle><circle id="1984" cx="109.87" cy="436.28" r="1.8" fill="#b13507" opacity="1"></circle><circle id="1985" cx="125.47" cy="435.44" r="1.8" fill="#b13507" opacity="1"></circle><circle id="1986" cx="141.08" cy="434.63" r="1.8" fill="#b13507" opacity="1"></circle><circle id="1987" cx="156.68" cy="433.73" r="1.8" fill="#b13507" opacity="1"></circle><circle id="1988" cx="172.28" cy="432.66" r="1.8" fill="#b13507" opacity="1"></circle><circle id="1989" cx="187.89" cy="431.27" r="1.8" fill="#b13507" opacity="1"></circle><circle id="1990" cx="203.49" cy="429.63" r="1.8" fill="#b13507" opacity="1"></circle><circle id="1991" cx="219.09" cy="427.71" r="1.8" fill="#b13507" opacity="1"></circle><circle id="1992" cx="234.7" cy="425.45" r="1.8" fill="#b13507" opacity="1"></circle><circle id="1993" cx="250.3" cy="422.94" r="1.8" fill="#b13507" opacity="1"></circle><circle id="1994" cx="265.9" cy="420.17" r="1.8" fill="#b13507" opacity="1"></circle><circle id="1995" cx="281.5" cy="417.18" r="1.8" fill="#b13507" opacity="1"></circle><circle id="1996" cx="297.11" cy="413.88" r="1.8" fill="#b13507" opacity="1"></circle><circle id="1997" cx="312.71" cy="410.23" r="1.8" fill="#b13507" opacity="1"></circle><circle id="1998" cx="328.31" cy="406.26" r="1.8" fill="#b13507" opacity="1"></circle><circle id="1999" cx="343.92" cy="402.03" r="1.8" fill="#b13507" opacity="1"></circle><circle id="2000" cx="359.52" cy="397.66" r="1.8" fill="#b13507" opacity="1"></circle><circle id="2001" cx="375.12" cy="393.21" r="1.8" fill="#b13507" opacity="1"></circle><circle id="2002" cx="390.73" cy="388.66" r="1.8" fill="#b13507" opacity="1"></circle><circle id="2003" cx="406.33" cy="383.92" r="1.8" fill="#b13507" opacity="1"></circle><circle id="2004" cx="421.93" cy="378.91" r="1.8" fill="#b13507" opacity="1"></circle><circle id="2005" cx="437.53" cy="373.57" r="1.8" fill="#b13507" opacity="1"></circle><circle id="2006" cx="453.14" cy="367.9" r="1.8" fill="#b13507" opacity="1"></circle><circle id="2007" cx="468.74" cy="361.96" r="1.8" fill="#b13507" opacity="1"></circle><circle id="2008" cx="484.34" cy="355.8" r="1.8" fill="#b13507" opacity="1"></circle><circle id="2009" cx="499.95" cy="349.46" r="1.8" fill="#b13507" opacity="1"></circle><circle id="2010" cx="515.55" cy="342.95" r="1.8" fill="#b13507" opacity="1"></circle><circle id="2011" cx="531.15" cy="336.7" r="1.8" fill="#b13507" opacity="1"></circle><circle id="2012" cx="546.75" cy="330.7" r="1.8" fill="#b13507" opacity="1"></circle><circle id="2013" cx="562.36" cy="324.59" r="1.8" fill="#b13507" opacity="1"></circle><circle id="2014" cx="577.96" cy="318.3" r="1.8" fill="#b13507" opacity="1"></circle><circle id="2015" cx="593.56" cy="311.73" r="1.8" fill="#b13507" opacity="1"></circle><circle id="2016" cx="609.17" cy="305.09" r="1.8" fill="#b13507" opacity="1"></circle><circle id="2017" cx="624.77" cy="298.44" r="1.8" fill="#b13507" opacity="1"></circle><circle id="2018" cx="640.37" cy="291.62" r="1.8" fill="#b13507" opacity="1"></circle><circle id="2019" cx="655.98" cy="284.42" r="1.8" fill="#b13507" opacity="1"></circle><circle id="2020" cx="671.58" cy="276.78" r="1.8" fill="#b13507" opacity="1"></circle><circle id="2021" cx="687.18" cy="268.69" r="1.8" fill="#b13507" opacity="1"></circle><circle id="2022" cx="702.78" cy="260.62" r="1.8" fill="#b13507" opacity="1"></circle><circle id="2023" cx="718.39" cy="252.82" r="1.8" fill="#b13507" opacity="1"></circle><circle id="2024" cx="733.99" cy="244.3" r="1.8" fill="#b13507" opacity="1"></circle></g><path fill="none" stroke-linecap="butt" stroke-linejoin="round" stroke="#fff" id="outline__Afghanistan" stroke-width="2.5" d="M47.46 523.1L63.06 522.47L78.67 521.79L94.27 521.04L109.87 520.23L125.47 519.35L141.08 518.4L156.68 517.37L172.28 516.25L187.89 515.03L203.49 513.72L219.09 512.3L234.7 510.76L250.3 509.08L265.9 507.25L281.5 505.27L297.11 503.1L312.71 500.72L328.31 498.12L343.92 495.29L359.52 492.22L375.12 488.9L390.73 485.33L406.33 481.55L421.93 477.54L437.53 473.3L453.14 468.81L468.74 464.07L484.34 459.07L499.95 453.81L515.55 448.31L531.15 442.51L546.75 436.37L562.36 429.85L577.96 422.9L593.56 415.49L609.17 407.64L624.77 399.41L640.37 390.87L655.98 382.07L671.58 373.01L687.18 363.67L702.78 354.02L718.39 344.1L733.99 333.88"></path><path fill="none" stroke-linecap="butt" stroke-linejoin="round" stroke="#4c6a9c" id="line__Afghanistan" stroke-width="1.5" stroke-opacity="1" d="M47.46 523.1L63.06 522.47L78.67 521.79L94.27 521.04L109.87 520.23L125.47 519.35L141.08 518.4L156.68 517.37L172.28 516.25L187.89 515.03L203.49 513.72L219.09 512.3L234.7 510.76L250.3 509.08L265.9 507.25L281.5 505.27L297.11 503.1L312.71 500.72L328.31 498.12L343.92 495.29L359.52 492.22L375.12 488.9L390.73 485.33L406.33 481.55L421.93 477.54L437.53 473.3L453.14 468.81L468.74 464.07L484.34 459.07L499.95 453.81L515.55 448.31L531.15 442.51L546.75 436.37L562.36 429.85L577.96 422.9L593.56 415.49L609.17 407.64L624.77 399.41L640.37 390.87L655.98 382.07L671.58 373.01L687.18 363.67L702.78 354.02L718.39 344.1L733.99 333.88"></path><g id="datapoints__Afghanistan"><circle id="1980" cx="47.46" cy="523.1" r="1.8" fill="#4c6a9c" opacity="1"></circle><circle id="1981" cx="63.06" cy="522.47" r="1.8" fill="#4c6a9c" opacity="1"></circle><circle id="1982" cx="78.67" cy="521.79" r="1.8" fill="#4c6a9c" opacity="1"></circle><circle id="1983" cx="94.27" cy="521.04" r="1.8" fill="#4c6a9c" opacity="1"></circle><circle id="1984" cx="109.87" cy="520.23" r="1.8" fill="#4c6a9c" opacity="1"></circle><circle id="1985" cx="125.47" cy="519.35" r="1.8" fill="#4c6a9c" opacity="1"></circle><circle id="1986" cx="141.08" cy="518.4" r="1.8" fill="#4c6a9c" opacity="1"></circle><circle id="1987" cx="156.68" cy="517.37" r="1.8" fill="#4c6a9c" opacity="1"></circle><circle id="1988" cx="172.28" cy="516.25" r="1.8" fill="#4c6a9c" opacity="1"></circle><circle id="1989" cx="187.89" cy="515.03" r="1.8" fill="#4c6a9c" opacity="1"></circle><circle id="1990" cx="203.49" cy="513.72" r="1.8" fill="#4c6a9c" opacity="1"></circle><circle id="1991" cx="219.09" cy="512.3" r="1.8" fill="#4c6a9c" opacity="1"></circle><circle id="1992" cx="234.7" cy="510.76" r="1.8" fill="#4c6a9c" opacity="1"></circle><circle id="1993" cx="250.3" cy="509.08" r="1.8" fill="#4c6a9c" opacity="1"></circle><circle id="1994" cx="265.9" cy="507.25" r="1.8" fill="#4c6a9c" opacity="1"></circle><circle id="1995" cx="281.5" cy="505.27" r="1.8" fill="#4c6a9c" opacity="1"></circle><circle id="1996" cx="297.11" cy="503.1" r="1.8" fill="#4c6a9c" opacity="1"></circle><circle id="1997" cx="312.71" cy="500.72" r="1.8" fill="#4c6a9c" opacity="1"></circle><circle id="1998" cx="328.31" cy="498.12" r="1.8" fill="#4c6a9c" opacity="1"></circle><circle id="1999" cx="343.92" cy="495.29" r="1.8" fill="#4c6a9c" opacity="1"></circle><circle id="2000" cx="359.52" cy="492.22" r="1.8" fill="#4c6a9c" opacity="1"></circle><circle id="2001" cx="375.12" cy="488.9" r="1.8" fill="#4c6a9c" opacity="1"></circle><circle id="2002" cx="390.73" cy="485.33" r="1.8" fill="#4c6a9c" opacity="1"></circle><circle id="2003" cx="406.33" cy="481.55" r="1.8" fill="#4c6a9c" opacity="1"></circle><circle id="2004" cx="421.93" cy="477.54" r="1.8" fill="#4c6a9c" opacity="1"></circle><circle id="2005" cx="437.53" cy="473.3" r="1.8" fill="#4c6a9c" opacity="1"></circle><circle id="2006" cx="453.14" cy="468.81" r="1.8" fill="#4c6a9c" opacity="1"></circle><circle id="2007" cx="468.74" cy="464.07" r="1.8" fill="#4c6a9c" opacity="1"></circle><circle id="2008" cx="484.34" cy="459.07" r="1.8" fill="#4c6a9c" opacity="1"></circle><circle id="2009" cx="499.95" cy="453.81" r="1.8" fill="#4c6a9c" opacity="1"></circle><circle id="2010" cx="515.55" cy="448.31" r="1.8" fill="#4c6a9c" opacity="1"></circle><circle id="2011" cx="531.15" cy="442.51" r="1.8" fill="#4c6a9c" opacity="1"></circle><circle id="2012" cx="546.75" cy="436.37" r="1.8" fill="#4c6a9c" opacity="1"></circle><circle id="2013" cx="562.36" cy="429.85" r="1.8" fill="#4c6a9c" opacity="1"></circle><circle id="2014" cx="577.96" cy="422.9" r="1.8" fill="#4c6a9c" opacity="1"></circle><circle id="2015" cx="593.56" cy="415.49" r="1.8" fill="#4c6a9c" opacity="1"></circle><circle id="2016" cx="609.17" cy="407.64" r="1.8" fill="#4c6a9c" opacity="1"></circle><circle id="2017" cx="624.77" cy="399.41" r="1.8" fill="#4c6a9c" opacity="1"></circle><circle id="2018" cx="640.37" cy="390.87" r="1.8" fill="#4c6a9c" opacity="1"></circle><circle id="2019" cx="655.98" cy="382.07" r="1.8" fill="#4c6a9c" opacity="1"></circle><circle id="2020" cx="671.58" cy="373.01" r="1.8" fill="#4c6a9c" opacity="1"></circle><circle id="2021" cx="687.18" cy="363.67" r="1.8" fill="#4c6a9c" opacity="1"></circle><circle id="2022" cx="702.78" cy="354.02" r="1.8" fill="#4c6a9c" opacity="1"></circle><circle id="2023" cx="718.39" cy="344.1" r="1.8" fill="#4c6a9c" opacity="1"></circle><circle id="2024" cx="733.99" cy="333.88" r="1.8" fill="#4c6a9c" opacity="1"></circle></g></g></g><g id="footer" class="SourcesFooter" style="fill:#767676"><g id="sources" class="markdown-text-wrap"><text x="16" y="581.01" style="font-size:13px;line-height:1.2"><tspan x="16" y="581.01"><tspan style="font-weight:700">Data source:</tspan> World Health Organization – Global Health Observatory (2026)</tspan></text></g><text id="origin-url" font-size="13" x="620.8" y="581.01"><tspan x="620.8" y="581.01"><a style="fill: #767676;" href="https://ourworldindata.org/obesity">OurWorldinData.org/obesity</a> | <a style="fill: #767676;" href="https://creativecommons.org/licenses/by/4.0/">CC BY</a></tspan></text></g></svg>