<svg xmlns="http://www.w3.org/2000/svg" width="1200" height="720" viewBox="0 0 1200 720" role="img" aria-labelledby="title desc">
<title id="title">Evening course enrolment</title><desc id="desc">The bar chart compares the numbers of men and women taking evening courses in a college in four years.</desc>
<defs><marker id="arrow" markerWidth="10" markerHeight="10" refX="8" refY="3" orient="auto"><path d="M0 0 L9 3 L0 6 Z" fill="#617082"/></marker></defs>
<rect width="1200" height="720" fill="white"/>
<g font-family="Arial, Helvetica, sans-serif">
<text x="600" y="67" text-anchor="middle" font-size="34" font-weight="700" fill="#273342">Evening course enrolment</text>
<line x1="80" y1="92" x2="1120" y2="92" stroke="#d9dfe5" stroke-width="1" />
<line x1="142" y1="540" x2="1050" y2="540" stroke="#273342" stroke-width="2" /><text x="124" y="547" text-anchor="end" font-size="17" font-weight="400" fill="#617082">0</text><line x1="142" y1="464" x2="1050" y2="464" stroke="#ced6de" stroke-width="1" stroke-dasharray="5 5"/><text x="124" y="471" text-anchor="end" font-size="17" font-weight="400" fill="#617082">33</text><line x1="142" y1="388" x2="1050" y2="388" stroke="#ced6de" stroke-width="1" stroke-dasharray="5 5"/><text x="124" y="395" text-anchor="end" font-size="17" font-weight="400" fill="#617082">66</text><line x1="142" y1="312" x2="1050" y2="312" stroke="#ced6de" stroke-width="1" stroke-dasharray="5 5"/><text x="124" y="319" text-anchor="end" font-size="17" font-weight="400" fill="#617082">99</text><line x1="142" y1="236" x2="1050" y2="236" stroke="#ced6de" stroke-width="1" stroke-dasharray="5 5"/><text x="124" y="243" text-anchor="end" font-size="17" font-weight="400" fill="#617082">132</text><line x1="142" y1="160" x2="1050" y2="160" stroke="#ced6de" stroke-width="1" stroke-dasharray="5 5"/><text x="124" y="167" text-anchor="end" font-size="17" font-weight="400" fill="#617082">165</text><line x1="142" y1="160" x2="142" y2="540" stroke="#273342" stroke-width="2" /><text x="142" y="131" text-anchor="start" font-size="18" font-weight="600" fill="#617082">Thousands of students</text><text x="255.5" y="576" text-anchor="middle" font-size="20" font-weight="400" fill="#273342">2005</text><rect x="189" y="355.75757575757575" width="62" height="184.24242424242425" rx="0" fill="#364b61" stroke="none" stroke-width="2" /><text x="220" y="346.75757575757575" text-anchor="middle" font-size="16" font-weight="600" fill="#273342">80</text><rect x="260" y="309.6969696969697" width="62" height="230.3030303030303" rx="0" fill="#7890a5" stroke="none" stroke-width="2" /><text x="291" y="300.6969696969697" text-anchor="middle" font-size="16" font-weight="600" fill="#273342">100</text><text x="482.5" y="576" text-anchor="middle" font-size="20" font-weight="400" fill="#273342">2010</text><rect x="416" y="332.72727272727275" width="62" height="207.27272727272728" rx="0" fill="#364b61" stroke="none" stroke-width="2" /><text x="447" y="323.72727272727275" text-anchor="middle" font-size="16" font-weight="600" fill="#273342">90</text><rect x="487" y="286.66666666666663" width="62" height="253.33333333333334" rx="0" fill="#7890a5" stroke="none" stroke-width="2" /><text x="518" y="277.66666666666663" text-anchor="middle" font-size="16" font-weight="600" fill="#273342">110</text><text x="709.5" y="576" text-anchor="middle" font-size="20" font-weight="400" fill="#273342">2015</text><rect x="643" y="298.1818181818182" width="62" height="241.8181818181818" rx="0" fill="#364b61" stroke="none" stroke-width="2" /><text x="674" y="289.1818181818182" text-anchor="middle" font-size="16" font-weight="600" fill="#273342">105</text><rect x="714" y="240.60606060606062" width="62" height="299.3939393939394" rx="0" fill="#7890a5" stroke="none" stroke-width="2" /><text x="745" y="231.60606060606062" text-anchor="middle" font-size="16" font-weight="600" fill="#273342">130</text><text x="936.5" y="576" text-anchor="middle" font-size="20" font-weight="400" fill="#273342">2020</text><rect x="870" y="275.1515151515151" width="62" height="264.8484848484849" rx="0" fill="#364b61" stroke="none" stroke-width="2" /><text x="901" y="266.1515151515151" text-anchor="middle" font-size="16" font-weight="600" fill="#273342">115</text><rect x="941" y="217.57575757575756" width="62" height="322.42424242424244" rx="0" fill="#7890a5" stroke="none" stroke-width="2" /><text x="972" y="208.57575757575756" text-anchor="middle" font-size="16" font-weight="600" fill="#273342">140</text><rect x="345" y="628" width="24" height="17" rx="0" fill="#364b61" stroke="none" stroke-width="2" /><text x="379" y="642" text-anchor="start" font-size="19" font-weight="400" fill="#273342">Men</text><rect x="600" y="628" width="24" height="17" rx="0" fill="#7890a5" stroke="none" stroke-width="2" /><text x="634" y="642" text-anchor="start" font-size="19" font-weight="400" fill="#273342">Women</text>
</g></svg>