<svg xmlns="http://www.w3.org/2000/svg" width="1200" height="720" viewBox="0 0 1200 720" role="img" aria-labelledby="title desc">
<title id="title">Household spending</title><desc id="desc">The pie charts show how an average household divided its spending in 2000 and 2020.</desc>
<defs><marker id="arrow" markerWidth="10" markerHeight="10" refX="8" refY="3" orient="auto"><path d="M0 0 L9 3 L0 6 Z" fill="#617082"/></marker></defs>
<rect width="1200" height="720" fill="white"/>
<g font-family="Arial, Helvetica, sans-serif">
<text x="600" y="67" text-anchor="middle" font-size="34" font-weight="700" fill="#273342">Household spending</text>
<line x1="80" y1="92" x2="1120" y2="92" stroke="#d9dfe5" stroke-width="1" />
<text x="343" y="145" text-anchor="middle" font-size="26" font-weight="700" fill="#273342">2000</text><path d="M343 360 L343 200 A160 160 0 0 1 495.1690426072246 409.44271909999156 Z" fill="#364b61" stroke="white" stroke-width="3"/><text x="416.6205464881202" y="313.5115420413849" text-anchor="middle" font-size="19" font-weight="700" fill="white">30%</text><path d="M343 360 L495.1690426072246 409.44271909999156 A160 160 0 0 1 293.55728090000844 512.1690426072246 Z" fill="#7890a5" stroke="white" stroke-width="3"/><text x="384.3131354762988" y="448.08159370114146" text-anchor="middle" font-size="19" font-weight="700" fill="white">25%</text><path d="M343 360 L293.55728090000844 512.1690426072246 A160 160 0 0 1 190.83095739277545 409.4427190999917 Z" fill="#b5c3cf" stroke="white" stroke-width="3"/><text x="278.6532829120242" y="431.3467170879759" text-anchor="middle" font-size="19" font-weight="700" fill="#273342">15%</text><path d="M343 360 L190.83095739277545 409.4427190999917 A160 160 0 0 1 248.95435963320426 230.55728090000844 Z" fill="#dbe3e9" stroke="white" stroke-width="3"/><text x="256.453857017141" y="338.87945351187983" text-anchor="middle" font-size="19" font-weight="700" fill="#273342">20%</text><path d="M343 360 L248.95435963320426 230.55728090000844 A160 160 0 0 1 342.99999999999994 200 Z" fill="#9eacb7" stroke="white" stroke-width="3"/><text x="314.8794535118798" y="280.45385701714105" text-anchor="middle" font-size="19" font-weight="700" fill="#273342">10%</text><text x="857" y="145" text-anchor="middle" font-size="26" font-weight="700" fill="#273342">2020</text><path d="M857 360 L857 200 A160 160 0 0 1 951.0456403667957 489.44271909999156 Z" fill="#364b61" stroke="white" stroke-width="3"/><text x="943.546142982859" y="338.8794535118798" text-anchor="middle" font-size="19" font-weight="700" fill="white">40%</text><path d="M857 360 L951.0456403667957 489.44271909999156 A160 160 0 0 1 762.9543596332044 489.44271909999156 Z" fill="#7890a5" stroke="white" stroke-width="3"/><text x="857" y="458" text-anchor="middle" font-size="19" font-weight="700" fill="white">20%</text><path d="M857 360 L762.9543596332044 489.44271909999156 A160 160 0 0 1 704.8309573927754 310.55728090000844 Z" fill="#b5c3cf" stroke="white" stroke-width="3"/><text x="770.453857017141" y="395.1205464881202" text-anchor="middle" font-size="19" font-weight="700" fill="#273342">20%</text><path d="M857 360 L704.8309573927754 310.55728090000844 A160 160 0 0 1 807.5572809000084 207.83095739277545 Z" fill="#dbe3e9" stroke="white" stroke-width="3"/><text x="792.6532829120242" y="302.65328291202417" text-anchor="middle" font-size="19" font-weight="700" fill="#273342">15%</text><path d="M857 360 L807.5572809000084 207.83095739277545 A160 160 0 0 1 857 200 Z" fill="#9eacb7" stroke="white" stroke-width="3"/><text x="838.697167590293" y="251.44046415036888" text-anchor="middle" font-size="16" font-weight="700" fill="#273342">5%</text><rect x="80" y="590" width="23" height="19" rx="0" fill="#364b61" stroke="none" stroke-width="2" /><text x="112" y="607" text-anchor="start" font-size="18" font-weight="400" fill="#273342">Housing</text><rect x="288" y="590" width="23" height="19" rx="0" fill="#7890a5" stroke="none" stroke-width="2" /><text x="320" y="607" text-anchor="start" font-size="18" font-weight="400" fill="#273342">Food</text><rect x="496" y="590" width="23" height="19" rx="0" fill="#b5c3cf" stroke="none" stroke-width="2" /><text x="528" y="607" text-anchor="start" font-size="18" font-weight="400" fill="#273342">Transport</text><rect x="704" y="590" width="23" height="19" rx="0" fill="#dbe3e9" stroke="none" stroke-width="2" /><text x="736" y="607" text-anchor="start" font-size="18" font-weight="400" fill="#273342">Leisure</text><rect x="912" y="590" width="23" height="19" rx="0" fill="#9eacb7" stroke="none" stroke-width="2" /><text x="944" y="607" text-anchor="start" font-size="18" font-weight="400" fill="#273342">Other</text>
</g></svg>